STARTFONT 2.1
FONT -FontForge-Shadows Into Light-Book-R-Normal--36-360-72-72-P-149-ISO10646-1
SIZE 36 72 72
FONTBOUNDINGBOX 51 57 -6 -15
COMMENT "Generated by fontforge, http://fontforge.sourceforge.net"
COMMENT "Copyright (c) 2010, Kimberly Geswein (kimberlygeswein.com)"
STARTPROPERTIES 39
FOUNDRY "FontForge"
FAMILY_NAME "Shadows Into Light"
WEIGHT_NAME "Book"
SLANT "R"
SETWIDTH_NAME "Normal"
ADD_STYLE_NAME ""
PIXEL_SIZE 36
POINT_SIZE 360
RESOLUTION_X 72
RESOLUTION_Y 72
SPACING "P"
AVERAGE_WIDTH 149
CHARSET_REGISTRY "ISO10646"
CHARSET_ENCODING "1"
FONTNAME_REGISTRY ""
CHARSET_COLLECTIONS "ISO8859-2 ISO8859-9 ISO8859-4 ISO10646-1"
FONT_NAME "ShadowsIntoLight"
FACE_NAME "Shadows Into Light"
COPYRIGHT "Copyright (c) 2010, Kimberly Geswein (kimberlygeswein.com)"
FONT_VERSION "001.000"
FONT_ASCENT 29
FONT_DESCENT 7
UNDERLINE_POSITION 0
UNDERLINE_THICKNESS 0
X_HEIGHT 21
CAP_HEIGHT 24
RAW_ASCENT 799
RAW_DESCENT 200
NORM_SPACE 16
RELATIVE_WEIGHT 40
RELATIVE_SETWIDTH 50
SUPERSCRIPT_X 0
SUPERSCRIPT_Y 17
SUPERSCRIPT_SIZE 23
SUBSCRIPT_X 0
SUBSCRIPT_Y 5
SUBSCRIPT_SIZE 23
AVG_LOWERCASE_WIDTH 136
AVG_UPPERCASE_WIDTH 173
ENDPROPERTIES
CHARS 352
STARTCHAR space
ENCODING 32
SWIDTH 450 0
DWIDTH 16 0
BBX 1 1 0 0
BITMAP
00
ENDCHAR
STARTCHAR exclam
ENCODING 33
SWIDTH 137 0
DWIDTH 5 0
BBX 3 31 1 0
BITMAP
80
80
80
80
80
80
80
80
80
80
80
80
80
80
C0
C0
C0
C0
C0
00
00
00
00
00
00
00
00
00
00
20
20
ENDCHAR
STARTCHAR quotedbl
ENCODING 34
SWIDTH 212 0
DWIDTH 8 0
BBX 5 10 1 18
BITMAP
C8
C8
C8
C8
C8
C8
48
48
48
40
ENDCHAR
STARTCHAR numbersign
ENCODING 35
SWIDTH 450 0
DWIDTH 16 0
BBX 14 20 2 3
BITMAP
0100
0180
3180
3180
3180
31F0
11C0
1F80
F880
7084
109C
10F0
19C0
1BC0
1EC0
78C0
F8C0
1040
0840
0800
ENDCHAR
STARTCHAR dollar
ENCODING 36
SWIDTH 445 0
DWIDTH 16 0
BBX 15 32 0 -4
BITMAP
0180
0180
0180
0180
0180
01F0
03E0
0780
0F80
3980
3180
6180
E180
C180
E180
7FF8
0186
0182
0086
0084
0088
00F0
00E0
03C0
07C0
00C0
00C0
0040
0060
0060
0060
0020
ENDCHAR
STARTCHAR percent
ENCODING 37
SWIDTH 450 0
DWIDTH 16 0
BBX 14 28 1 0
BITMAP
0060
0060
0060
70C0
F8C0
C8C0
C980
8980
9980
B180
E300
0300
0300
0300
0218
061C
0634
0634
0434
043C
043C
0C38
0800
0800
0800
0800
0800
0800
ENDCHAR
STARTCHAR ampersand
ENCODING 38
SWIDTH 356 0
DWIDTH 13 0
BBX 11 16 1 4
BITMAP
0600
0600
0600
0600
0600
0660
26C0
7F80
8F00
8600
8E00
9A00
B600
E600
0600
0600
ENDCHAR
STARTCHAR quotesingle
ENCODING 39
SWIDTH 155 0
DWIDTH 6 0
BBX 3 11 1 12
BITMAP
40
C0
C0
E0
E0
60
60
40
40
40
20
ENDCHAR
STARTCHAR parenleft
ENCODING 40
SWIDTH 291 0
DWIDTH 11 0
BBX 9 30 1 0
BITMAP
0100
0180
0300
0600
0C00
0C00
1800
1800
3000
3000
6000
6000
4000
C000
C000
C000
C000
8000
8000
8000
8000
C000
C000
C000
4000
6000
3000
3000
1C00
0F00
ENDCHAR
STARTCHAR parenright
ENCODING 41
SWIDTH 241 0
DWIDTH 9 0
BBX 7 27 1 0
BITMAP
80
C0
60
30
18
18
0C
0C
04
04
06
06
06
06
06
06
06
06
04
0C
0C
0C
18
18
30
30
20
ENDCHAR
STARTCHAR asterisk
ENCODING 42
SWIDTH 481 0
DWIDTH 17 0
BBX 16 18 1 2
BITMAP
0600
0600
0630
0670
0660
C6C0
7F9F
3FFE
0FC0
7FC0
FFE0
0F38
1F1C
3904
7100
6100
4100
0100
ENDCHAR
STARTCHAR plus
ENCODING 43
SWIDTH 466 0
DWIDTH 17 0
BBX 16 16 1 4
BITMAP
0600
0600
0600
0600
0600
0600
060F
06FE
07C0
7E00
F600
0600
0600
0200
0200
0200
ENDCHAR
STARTCHAR comma
ENCODING 44
SWIDTH 112 0
DWIDTH 4 0
BBX 3 8 1 -4
BITMAP
C0
E0
E0
E0
C0
C0
C0
C0
ENDCHAR
STARTCHAR hyphen
ENCODING 45
SWIDTH 399 0
DWIDTH 14 0
BBX 14 5 0 7
BITMAP
0018
00FC
03F0
1F80
FC00
ENDCHAR
STARTCHAR period
ENCODING 46
SWIDTH 128 0
DWIDTH 5 0
BBX 3 2 1 0
BITMAP
E0
C0
ENDCHAR
STARTCHAR slash
ENCODING 47
SWIDTH 306 0
DWIDTH 11 0
BBX 10 28 0 -3
BITMAP
00C0
00C0
0080
0180
0180
0100
0300
0300
0200
0600
0600
0600
0400
0C00
0C00
0800
1800
1800
1000
3000
3000
2000
6000
6000
4000
4000
C000
C000
ENDCHAR
STARTCHAR zero
ENCODING 48
SWIDTH 308 0
DWIDTH 11 0
BBX 9 19 1 0
BITMAP
1E00
3300
6100
4100
4180
C180
C080
C080
C080
C080
C080
C180
4180
4180
4100
6300
2300
3E00
1C00
ENDCHAR
STARTCHAR one
ENCODING 49
SWIDTH 112 0
DWIDTH 4 0
BBX 2 23 1 0
BITMAP
80
C0
C0
C0
C0
C0
C0
C0
C0
C0
C0
C0
C0
C0
C0
C0
C0
C0
C0
C0
C0
40
40
ENDCHAR
STARTCHAR two
ENCODING 50
SWIDTH 512 0
DWIDTH 18 0
BBX 17 21 1 0
BITMAP
030000
0F8000
1DC000
38C000
60C000
C0C000
80C000
00C000
00C000
008000
018000
018000
010000
030000
030000
060000
060F80
0C7C00
0FE000
1E0000
100000
ENDCHAR
STARTCHAR three
ENCODING 51
SWIDTH 461 0
DWIDTH 17 0
BBX 15 25 1 0
BITMAP
01C0
0FC0
3CC0
F040
C0C0
8080
0180
0300
0700
0E00
1FF8
1E0C
7806
3006
0006
0006
000C
000C
0018
0030
00E0
01C0
0380
0700
0600
ENDCHAR
STARTCHAR four
ENCODING 52
SWIDTH 503 0
DWIDTH 18 0
BBX 18 28 0 0
BITMAP
001800
003800
003800
007800
007800
00F800
00D800
01D800
019800
031800
071800
061800
0C1800
0C1840
181FC0
38FC00
7F9800
F81800
801800
001800
001800
001800
001800
001800
001800
001800
001800
001000
ENDCHAR
STARTCHAR five
ENCODING 53
SWIDTH 478 0
DWIDTH 17 0
BBX 16 25 1 0
BITMAP
0007
607E
E7C0
FC00
F000
E000
6000
6000
4000
C0E0
C3E0
CE30
CC30
D030
6030
4030
0060
0060
00C0
01C0
0180
0300
0700
0600
0400
ENDCHAR
STARTCHAR six
ENCODING 54
SWIDTH 375 0
DWIDTH 14 0
BBX 12 29 1 0
BITMAP
1800
1800
1800
3000
3000
3000
3000
2000
2000
6000
6000
6000
4000
4000
C000
C0F0
C3F0
C730
C620
CC20
CC20
D840
D0C0
D0C0
F180
7180
7300
3E00
1C00
ENDCHAR
STARTCHAR seven
ENCODING 55
SWIDTH 458 0
DWIDTH 16 0
BBX 15 27 0 0
BITMAP
0006
01FE
3FFE
FE0E
000C
001C
0018
0018
0018
0010
0030
0030
0030
0020
0020
0060
0060
0060
0060
0060
0060
0060
0060
0060
0060
0070
0030
ENDCHAR
STARTCHAR eight
ENCODING 56
SWIDTH 333 0
DWIDTH 12 0
BBX 10 25 1 0
BITMAP
0700
1F80
3380
67C0
4040
C0C0
C080
C080
C080
C180
C100
6300
3600
3E00
0C00
0E00
0E00
1900
1180
1080
30C0
20C0
2080
3F80
1E00
ENDCHAR
STARTCHAR nine
ENCODING 57
SWIDTH 475 0
DWIDTH 17 0
BBX 16 24 0 0
BITMAP
01F8
03CC
071C
0C1E
183E
3076
3066
60E6
61C6
4386
C706
FE06
7C02
0002
0002
0002
0002
0003
0003
0003
0003
0003
0003
0003
ENDCHAR
STARTCHAR colon
ENCODING 58
SWIDTH 120 0
DWIDTH 4 0
BBX 2 11 1 4
BITMAP
C0
C0
00
00
00
00
00
00
00
C0
C0
ENDCHAR
STARTCHAR semicolon
ENCODING 59
SWIDTH 121 0
DWIDTH 4 0
BBX 3 15 1 -4
BITMAP
40
C0
00
00
00
00
00
C0
E0
E0
E0
C0
C0
C0
C0
ENDCHAR
STARTCHAR less
ENCODING 60
SWIDTH 409 0
DWIDTH 15 0
BBX 12 18 2 5
BITMAP
0010
0030
0070
00E0
03C0
0780
0E00
1C00
3000
E000
C000
E000
7800
3C00
0F00
03C0
01F0
0060
ENDCHAR
STARTCHAR equal
ENCODING 61
SWIDTH 433 0
DWIDTH 16 0
BBX 14 10 1 3
BITMAP
0008
1FF0
7F80
7000
0000
003C
01F8
1F80
F800
C000
ENDCHAR
STARTCHAR greater
ENCODING 62
SWIDTH 450 0
DWIDTH 16 0
BBX 12 20 2 4
BITMAP
8000
E000
F800
3C00
0F00
03C0
00E0
0070
0030
0030
0060
00C0
0380
0700
0E00
1C00
7800
F000
C000
8000
ENDCHAR
STARTCHAR question
ENCODING 63
SWIDTH 445 0
DWIDTH 16 0
BBX 15 33 0 0
BITMAP
00F8
0FFE
3E06
F802
4006
0006
0006
000C
0018
0038
0070
00E0
01C0
0380
0700
0600
0600
0E00
0720
07F0
0000
0000
0000
0000
0000
0000
0000
0000
0000
0000
0000
0300
0180
ENDCHAR
STARTCHAR at
ENCODING 64
SWIDTH 945 0
DWIDTH 34 0
BBX 32 32 1 0
BITMAP
0001FE00
0007E780
001E00C0
00380060
00600030
00C00030
01800010
0300C018
0603E018
0C0E2018
0C1CE018
1830C018
3031C018
3061C018
20C34018
60C66010
61866030
C18C3060
C3183DE0
C3301F80
C3E00000
C1800000
C0000000
C0000003
E0000007
E000000E
60000038
700000F0
380003C0
1E001F00
07FFF800
00FF8000
ENDCHAR
STARTCHAR A
ENCODING 65
SWIDTH 390 0
DWIDTH 14 0
BBX 16 28 1 -1
BITMAP
1000
3800
3800
3C00
3C00
3600
3600
3200
3300
3300
7100
6180
6180
6180
60DF
60F9
61C0
63C0
7F60
7060
E060
C020
C030
C030
C010
C010
0018
0010
ENDCHAR
STARTCHAR B
ENCODING 66
SWIDTH 537 0
DWIDTH 19 0
BBX 18 26 1 0
BITMAP
01F000
07F800
DE1800
F81800
F03000
603000
606000
60C000
618600
637F80
67C1C0
6F0080
3E0180
3C0100
380300
300600
300C00
301800
303800
107000
10E000
19C000
198000
1B0000
180000
180000
ENDCHAR
STARTCHAR C
ENCODING 67
SWIDTH 487 0
DWIDTH 18 0
BBX 16 26 1 0
BITMAP
03E0
07E0
0630
0C10
1800
1800
3000
3000
3000
2000
6000
6000
6000
4000
C000
C000
C003
C006
C00E
C00C
C018
C038
C070
60C0
7F80
3E00
ENDCHAR
STARTCHAR D
ENCODING 68
SWIDTH 554 0
DWIDTH 20 0
BBX 18 27 1 0
BITMAP
100000
100000
1FC000
3FFC00
F80F00
F80180
1800C0
1800C0
1800C0
1800C0
1800C0
180080
180180
180180
180300
180600
180600
180C00
181800
183800
087000
08E000
09C000
0B8000
030000
060000
040000
ENDCHAR
STARTCHAR E
ENCODING 69
SWIDTH 474 0
DWIDTH 17 0
BBX 15 26 1 0
BITMAP
4038
E1E0
E780
7E00
7800
6000
6000
6000
6000
6010
6070
61E0
6380
2E00
3800
3000
3000
3006
300E
3038
3070
31C0
3380
3E00
3C00
2000
ENDCHAR
STARTCHAR F
ENCODING 70
SWIDTH 428 0
DWIDTH 15 0
BBX 14 25 1 0
BITMAP
001C
C078
C1E0
CF80
FE00
F000
C000
C000
C000
C000
C000
E01C
E038
E0E0
E380
EF00
FC00
F000
6000
6000
6000
6000
6000
6000
6000
ENDCHAR
STARTCHAR G
ENCODING 71
SWIDTH 591 0
DWIDTH 21 0
BBX 20 27 1 -4
BITMAP
007C00
00F000
01C000
030000
060000
060000
0C0000
180000
180000
3007F0
303FC0
6001C0
600180
400380
C00380
C00780
C00F80
C01D80
C03980
C0F180
FFE180
7F8180
0C0180
000180
000180
000180
000080
ENDCHAR
STARTCHAR H
ENCODING 72
SWIDTH 424 0
DWIDTH 15 0
BBX 13 24 1 0
BITMAP
C060
C060
C060
C020
C020
C030
C030
C030
C030
C030
C070
C0F0
C390
6F10
7C10
7018
6018
4018
4018
4018
4018
6018
6018
4008
ENDCHAR
STARTCHAR I
ENCODING 73
SWIDTH 153 0
DWIDTH 6 0
BBX 3 27 2 0
BITMAP
C0
C0
C0
C0
C0
C0
C0
C0
C0
C0
C0
C0
40
40
40
40
40
40
40
40
40
40
40
40
60
60
40
ENDCHAR
STARTCHAR J
ENCODING 74
SWIDTH 371 0
DWIDTH 13 0
BBX 12 28 0 -2
BITMAP
0040
00C0
0040
0040
0060
0060
0060
0060
0060
0060
0060
0070
0030
0030
0030
0030
0030
0030
0030
0030
0030
8030
4030
4030
6030
3030
1860
0FC0
ENDCHAR
STARTCHAR K
ENCODING 75
SWIDTH 524 0
DWIDTH 19 0
BBX 18 24 1 0
BITMAP
C00000
C00800
C01800
403000
606000
60E000
60C000
618000
638000
630000
660000
640000
2C0000
380000
380000
380000
300000
3FFFC0
3FFFC0
300000
300000
100000
100000
100000
ENDCHAR
STARTCHAR L
ENCODING 76
SWIDTH 537 0
DWIDTH 19 0
BBX 18 23 1 0
BITMAP
400000
C00000
E00000
E00000
E00000
E00000
E00000
E00000
E00000
E00000
E00000
E00000
600000
600000
600000
6001C0
6007C0
601E00
607800
61E000
6F8000
7E0000
780000
ENDCHAR
STARTCHAR M
ENCODING 77
SWIDTH 682 0
DWIDTH 25 0
BBX 23 28 1 0
BITMAP
800000
E00060
F00060
F80070
5800F0
4C00F0
4C00B0
4601B0
4601B0
630130
630110
618310
618310
60C210
60C610
606618
607418
603C18
703818
701818
700018
700008
700008
70000C
70000C
30000C
30000C
30000A
ENDCHAR
STARTCHAR N
ENCODING 78
SWIDTH 541 0
DWIDTH 19 0
BBX 17 28 1 0
BITMAP
000200
000600
000600
000300
000300
C00300
E00300
F00300
F80300
F80300
7C0300
6E0300
670300
630300
618300
61C300
60C300
606300
603300
201B00
301B00
300F00
300700
300380
300380
300380
300000
100000
ENDCHAR
STARTCHAR O
ENCODING 79
SWIDTH 382 0
DWIDTH 14 0
BBX 12 24 1 0
BITMAP
0780
0FC0
1C60
1870
3030
3030
6030
6030
6030
E030
C030
C030
C030
C030
8030
8060
8060
8060
C0C0
C0C0
C180
7700
7E00
3C00
ENDCHAR
STARTCHAR P
ENCODING 80
SWIDTH 508 0
DWIDTH 18 0
BBX 17 29 1 0
BITMAP
00F800
37FE00
7E0F00
780300
F00180
F00100
300300
300700
200600
201C00
203800
20F000
31C000
3F8000
3E0000
380000
300000
300000
300000
300000
300000
300000
300000
300000
300000
300000
300000
300000
100000
ENDCHAR
STARTCHAR Q
ENCODING 81
SWIDTH 512 0
DWIDTH 18 0
BBX 16 27 1 0
BITMAP
0EF0
1FF8
1C0C
3804
3006
3002
6002
6002
6002
6002
C003
C003
C003
C062
C062
C062
C032
C032
C01E
C01E
400C
600C
601E
301E
3833
1FE3
0781
ENDCHAR
STARTCHAR R
ENCODING 82
SWIDTH 503 0
DWIDTH 18 0
BBX 17 29 1 0
BITMAP
800000
E07000
E3FE00
EF8F00
FC0300
F00300
E00600
E00C00
E01800
C07000
C1C000
C78000
CE0000
F80000
F00000
E00000
F80000
FE0000
CF8000
C3E000
C0F800
C03E00
C00F80
C00380
C00000
C00000
C00000
C00000
C00000
ENDCHAR
STARTCHAR S
ENCODING 83
SWIDTH 541 0
DWIDTH 19 0
BBX 19 25 0 1
BITMAP
003E00
00FE00
038800
060000
0C0000
180000
300000
300000
600000
600000
C00000
C00000
600000
600000
380000
0FF000
00FF80
0001C0
000060
0000C0
000380
000F00
007C00
03F000
0F8000
ENDCHAR
STARTCHAR T
ENCODING 84
SWIDTH 595 0
DWIDTH 21 0
BBX 25 26 0 0
BITMAP
00180000
0018FF80
00FFFC00
7FFC0000
FE180000
00180000
00080000
000C0000
000C0000
000C0000
000C0000
000C0000
000C0000
000C0000
000C0000
000C0000
00060000
00060000
00060000
00060000
00060000
00060000
00060000
00060000
00020000
00030000
ENDCHAR
STARTCHAR U
ENCODING 85
SWIDTH 450 0
DWIDTH 16 0
BBX 15 26 1 -4
BITMAP
000C
C00C
C00C
C01C
C01C
C01C
C01C
C01C
C01C
C03C
C03C
C03C
C03C
C03C
C06C
406C
404C
60CC
618C
738C
3F04
1804
0004
0004
0006
0004
ENDCHAR
STARTCHAR V
ENCODING 86
SWIDTH 524 0
DWIDTH 19 0
BBX 18 26 0 0
BITMAP
0000C0
0000C0
0000C0
000180
000180
E00180
600180
700380
300300
300300
180300
180300
0C0600
0C0600
0E0600
060600
070E00
030C00
038C00
018C00
01DC00
00D800
00F800
007800
007800
001800
ENDCHAR
STARTCHAR W
ENCODING 87
SWIDTH 878 0
DWIDTH 32 0
BBX 29 27 1 0
BITMAP
00000008
00000018
00000018
00000018
00010018
C0038030
C0038030
E003C030
6003C030
6006C060
3006C060
3004E060
300C6060
380C60C0
180870C0
181830C0
1C1830C0
1C181980
0C301980
0C300D80
0E300D80
0E600700
06600700
07600300
07E00300
03C00000
03C00000
ENDCHAR
STARTCHAR X
ENCODING 88
SWIDTH 461 0
DWIDTH 17 0
BBX 15 25 1 0
BITMAP
0006
000C
600C
6018
3018
3030
1830
1860
0CC0
0CC0
0F80
0780
0700
0700
0780
0780
0CC0
18C0
1860
3060
7030
6030
C018
4018
0008
ENDCHAR
STARTCHAR Y
ENCODING 89
SWIDTH 483 0
DWIDTH 17 0
BBX 17 28 0 0
BITMAP
000100
000180
000100
000300
000300
C00200
600600
600600
300600
380C00
1C0C00
0E0C00
061800
031800
039800
01F000
00F000
007000
006000
006000
006000
00C000
00C000
00C000
018000
018000
018000
010000
ENDCHAR
STARTCHAR Z
ENCODING 90
SWIDTH 670 0
DWIDTH 24 0
BBX 22 25 1 0
BITMAP
7FF000
FFFFE0
0001E0
0001C0
000380
000700
000700
000E00
001C00
003800
003000
007000
00E000
01C000
038000
030000
070000
0E0000
1C0000
180000
300000
700000
FFFFFC
FFFFFC
FFFF00
ENDCHAR
STARTCHAR bracketleft
ENCODING 91
SWIDTH 470 0
DWIDTH 17 0
BBX 15 44 1 -4
BITMAP
FFFC
FFC0
C000
C000
C000
C000
C000
C000
C000
4000
4000
4000
4000
4000
6000
6000
6000
6000
6000
6000
6000
2000
2000
3000
3000
3000
3000
3000
3000
3000
3000
3000
1000
1000
1000
1000
1000
1000
1000
1006
187E
1FF0
1F00
1000
ENDCHAR
STARTCHAR backslash
ENCODING 92
SWIDTH 554 0
DWIDTH 20 0
BBX 19 36 0 0
BITMAP
E00000
600000
700000
300000
180000
180000
0C0000
0C0000
060000
060000
030000
030000
018000
018000
00C000
00C000
00E000
006000
006000
003000
003000
001800
001800
000C00
000C00
000600
000600
000700
000300
000380
000180
0001C0
0000C0
0000E0
000060
000060
ENDCHAR
STARTCHAR bracketright
ENCODING 93
SWIDTH 512 0
DWIDTH 18 0
BBX 18 46 0 -4
BITMAP
3FFF00
FFEF00
000700
000700
000700
000700
000700
000700
000300
000300
000300
000300
000300
000300
000300
000300
000300
000300
000300
000300
000300
000300
000300
000300
000300
000300
000300
000300
000100
000100
000180
000180
000180
000180
000180
000180
000180
000180
000180
000180
000180
000180
000380
003FC0
01FF00
00C000
ENDCHAR
STARTCHAR asciicircum
ENCODING 94
SWIDTH 390 0
DWIDTH 14 0
BBX 13 10 1 24
BITMAP
0400
0E00
0F00
1B00
1180
30C0
2060
6030
C038
C000
ENDCHAR
STARTCHAR underscore
ENCODING 95
SWIDTH 612 0
DWIDTH 22 0
BBX 21 6 0 0
BITMAP
0000F8
000FF8
00FFC0
0FF800
FF8000
700000
ENDCHAR
STARTCHAR grave
ENCODING 96
SWIDTH 155 0
DWIDTH 6 0
BBX 3 6 1 21
BITMAP
80
80
C0
E0
60
20
ENDCHAR
STARTCHAR a
ENCODING 97
SWIDTH 366 0
DWIDTH 13 0
BBX 12 19 0 0
BITMAP
01E0
03E0
0760
0E60
1C60
1860
38E0
30E0
31E0
61B0
63B0
6330
C730
C630
CC30
DC10
F810
7010
2010
ENDCHAR
STARTCHAR b
ENCODING 98
SWIDTH 442 0
DWIDTH 16 0
BBX 14 30 1 0
BITMAP
6000
6000
6000
6000
6000
6000
6000
6000
6000
6000
6000
6000
61F0
47F8
4E18
5C0C
580C
F00C
E00C
E01C
C018
C038
C030
C070
C1E0
C3C0
CF00
FE00
F800
E000
ENDCHAR
STARTCHAR c
ENCODING 99
SWIDTH 390 0
DWIDTH 14 0
BBX 12 21 1 0
BITMAP
1E00
3F00
3300
7300
6300
6100
6000
C000
C000
C000
C000
C000
C010
C030
C030
C070
C060
4060
60C0
3F80
1E00
ENDCHAR
STARTCHAR d
ENCODING 100
SWIDTH 316 0
DWIDTH 11 0
BBX 10 35 0 -3
BITMAP
0040
00C0
00C0
00C0
00C0
00C0
00C0
00C0
00C0
00C0
00C0
00C0
00C0
03C0
0FC0
1DC0
38C0
70C0
70C0
60C0
60C0
40C0
C0C0
C1C0
C1C0
C1C0
C340
C340
C640
EC40
7840
3040
0040
0040
0040
ENDCHAR
STARTCHAR e
ENCODING 101
SWIDTH 461 0
DWIDTH 17 0
BBX 16 19 0 0
BITMAP
03E0
07F0
0E38
0C38
1C30
18E0
3BC0
3F00
7C00
7000
F003
B006
300E
301C
3018
3030
30E0
1FC0
0F00
ENDCHAR
STARTCHAR f
ENCODING 102
SWIDTH 345 0
DWIDTH 12 0
BBX 11 32 1 0
BITMAP
0E00
0F00
1F80
1D80
1880
1800
1800
1800
3800
3800
3800
3800
3000
3020
30E0
37C0
3F80
7800
F000
D000
1000
1800
1800
1800
1800
1800
1800
1800
1800
1800
1800
1800
ENDCHAR
STARTCHAR g
ENCODING 103
SWIDTH 437 0
DWIDTH 16 0
BBX 14 35 1 -15
BITMAP
00E0
03F0
0770
0C70
1870
18F8
30F8
20B8
61B8
61B8
C318
C318
C618
8E18
8C18
DC18
F818
7018
001C
001C
001C
0018
0018
0018
0018
0018
0030
0030
0030
0060
0060
00C0
01C0
0F80
3F00
ENDCHAR
STARTCHAR h
ENCODING 104
SWIDTH 466 0
DWIDTH 17 0
BBX 15 27 1 0
BITMAP
8000
C000
C000
C000
C000
C000
C000
C000
C000
C030
C0FC
C1EE
C386
C786
C706
CE06
CE06
CC06
DC06
D806
D806
F006
F006
E006
E006
C006
8006
ENDCHAR
STARTCHAR i
ENCODING 105
SWIDTH 132 0
DWIDTH 5 0
BBX 2 27 1 0
BITMAP
80
C0
80
00
00
00
00
C0
C0
C0
C0
C0
C0
C0
C0
C0
C0
C0
C0
C0
C0
C0
C0
C0
C0
C0
C0
ENDCHAR
STARTCHAR j
ENCODING 106
SWIDTH 112 0
DWIDTH 4 0
BBX 10 41 -6 -12
BITMAP
0080
0180
0000
0000
0000
0000
0000
0000
0000
0000
0100
0180
0180
0180
0180
0180
0180
0180
0180
0180
0180
0180
0180
0180
0180
0080
00C0
00C0
00C0
00C0
00C0
00C0
00C0
00C0
00C0
0080
8180
C180
6380
3F00
0E00
ENDCHAR
STARTCHAR k
ENCODING 107
SWIDTH 428 0
DWIDTH 15 0
BBX 14 29 1 -1
BITMAP
4000
6000
6000
6000
6000
6000
6000
601C
6018
6038
6070
6070
60E0
E1E0
C1C0
C380
C700
C700
CE00
FC00
F800
F000
F800
FE00
C7C0
C1F8
C038
C008
8000
ENDCHAR
STARTCHAR l
ENCODING 108
SWIDTH 137 0
DWIDTH 5 0
BBX 3 30 1 1
BITMAP
80
C0
C0
C0
C0
C0
C0
40
40
40
40
40
40
40
60
60
60
60
60
60
60
60
60
60
60
60
60
60
60
60
ENDCHAR
STARTCHAR m
ENCODING 109
SWIDTH 579 0
DWIDTH 21 0
BBX 19 22 1 0
BITMAP
C00000
C00000
C00000
C00000
C00700
470780
4F8F80
4F8D80
4D9980
4D9980
589980
78F180
78F080
78F080
70E080
7060C0
7060C0
7060C0
7000C0
6000E0
600040
600000
ENDCHAR
STARTCHAR n
ENCODING 110
SWIDTH 483 0
DWIDTH 17 0
BBX 15 21 1 0
BITMAP
8030
C0F8
C1F8
C38C
C30C
C70C
C604
E606
6606
6C06
6C06
6C06
6806
7806
7806
7806
7006
7006
7006
7006
6000
ENDCHAR
STARTCHAR o
ENCODING 111
SWIDTH 266 0
DWIDTH 10 0
BBX 8 20 1 0
BITMAP
38
7C
7C
62
42
C3
C3
C3
C3
C3
C3
C3
C3
C3
C6
C6
CE
DC
F8
70
ENDCHAR
STARTCHAR p
ENCODING 112
SWIDTH 482 0
DWIDTH 17 0
BBX 16 29 1 -10
BITMAP
C000
C07C
C3FE
C703
DC03
F006
E006
E00C
C018
C030
C0E0
C1C0
C780
CF00
FE00
F800
F000
C000
C000
C000
C000
C000
C000
C000
C000
C000
C000
C000
C000
ENDCHAR
STARTCHAR q
ENCODING 113
SWIDTH 408 0
DWIDTH 15 0
BBX 14 27 1 -10
BITMAP
01C0
07E0
0E60
1C60
1860
3060
6060
60F0
40F0
C0B0
C1B0
C1B0
C330
C710
FE18
3018
0018
0018
0018
0018
0018
000C
000C
000C
000C
000C
000C
ENDCHAR
STARTCHAR r
ENCODING 114
SWIDTH 396 0
DWIDTH 14 0
BBX 12 18 1 0
BITMAP
C1F0
C7F0
C700
CE00
CC00
4C00
4C00
6C00
7800
7800
7800
3800
3800
3800
3800
3800
3800
1800
ENDCHAR
STARTCHAR s
ENCODING 115
SWIDTH 366 0
DWIDTH 13 0
BBX 12 19 1 -1
BITMAP
07C0
1FC0
3800
7000
6000
C000
C000
C000
C1E0
FFE0
FC70
3030
0060
00E0
01C0
0380
0F00
1E00
1800
ENDCHAR
STARTCHAR t
ENCODING 116
SWIDTH 268 0
DWIDTH 10 0
BBX 11 28 -1 -1
BITMAP
1800
1800
1800
1800
1800
1800
1800
18E0
1FE0
3F80
FC00
F800
D800
1800
1800
1800
1800
1800
1800
1800
1800
1800
1800
0800
0800
0C00
0C00
0800
ENDCHAR
STARTCHAR u
ENCODING 117
SWIDTH 387 0
DWIDTH 14 0
BBX 12 18 1 -1
BITMAP
C060
C060
C060
C060
C060
C060
C0E0
C0E0
C0E0
C0E0
41E0
61E0
63E0
63E0
6760
3E60
3C30
0020
ENDCHAR
STARTCHAR v
ENCODING 118
SWIDTH 354 0
DWIDTH 13 0
BBX 12 19 0 0
BITMAP
0070
0030
0030
0030
E070
6070
7070
3070
3870
1870
0C60
0E60
0660
0760
03E0
01E0
01E0
00E0
0060
ENDCHAR
STARTCHAR w
ENCODING 119
SWIDTH 566 0
DWIDTH 20 0
BBX 18 19 1 0
BITMAP
008000
C18080
C1C0C0
C1E0C0
61E0C0
61B0C0
33B0C0
3318C0
3318C0
1B0CC0
1B06C0
1F06C0
0F03C0
0F03C0
0701C0
0700C0
0700C0
030000
030000
ENDCHAR
STARTCHAR x
ENCODING 120
SWIDTH 454 0
DWIDTH 16 0
BBX 15 25 1 -3
BITMAP
0180
01C0
01C0
01C0
0180
C180
C180
E180
7180
3900
1F00
0F00
0700
0780
07C0
06E0
0630
0E18
0C0C
0C06
0C04
1C00
1800
1800
0800
ENDCHAR
STARTCHAR y
ENCODING 121
SWIDTH 363 0
DWIDTH 13 0
BBX 11 32 1 -13
BITMAP
0020
0020
0020
C020
E020
6060
7060
3060
3860
1860
0C60
0E60
0660
0360
03E0
01E0
01E0
00E0
0060
0060
0060
0060
0060
0040
00C0
00C0
00C0
00C0
00C0
00C0
00C0
00C0
ENDCHAR
STARTCHAR z
ENCODING 122
SWIDTH 618 0
DWIDTH 22 0
BBX 22 18 1 0
BITMAP
003800
00F800
07D800
7E3800
F83000
007000
006000
00E000
00C000
01C000
018000
030000
030000
030038
0607FC
067FF0
07FE00
078000
ENDCHAR
STARTCHAR braceleft
ENCODING 123
SWIDTH 348 0
DWIDTH 13 0
BBX 12 34 0 -3
BITMAP
0080
07F0
0E10
1C00
1800
1800
1800
1800
1800
0C00
0C00
0600
0600
7C00
7000
3000
1800
0C00
0C00
7C00
7800
E000
C000
C000
C000
C000
C000
6000
6000
7000
3800
1E00
0F80
03C0
ENDCHAR
STARTCHAR bar
ENCODING 124
SWIDTH 137 0
DWIDTH 5 0
BBX 3 30 1 1
BITMAP
80
C0
C0
C0
C0
C0
C0
40
40
40
40
40
40
40
60
60
60
60
60
60
60
60
60
60
60
60
60
60
60
60
ENDCHAR
STARTCHAR braceright
ENCODING 125
SWIDTH 348 0
DWIDTH 13 0
BBX 11 34 0 -4
BITMAP
3C00
FE00
8700
0380
0180
0180
0180
0180
0100
0300
0600
0600
0600
03E0
00E0
0080
0100
0300
0700
03E0
01E0
0060
0060
0020
0020
0060
0060
0060
0060
00C0
01C0
0780
3F00
1C00
ENDCHAR
STARTCHAR asciitilde
ENCODING 126
SWIDTH 458 0
DWIDTH 17 0
BBX 14 6 1 20
BITMAP
1C00
7E0C
631C
E338
C1F0
00E0
ENDCHAR
STARTCHAR nonbreakingspace
ENCODING 160
SWIDTH 450 0
DWIDTH 16 0
BBX 1 1 0 0
BITMAP
00
ENDCHAR
STARTCHAR exclamdown
ENCODING 161
SWIDTH 137 0
DWIDTH 5 0
BBX 3 23 1 -5
BITMAP
20
20
00
00
00
00
00
00
00
40
C0
C0
C0
C0
C0
C0
C0
C0
C0
C0
C0
C0
C0
ENDCHAR
STARTCHAR cent
ENCODING 162
SWIDTH 394 0
DWIDTH 14 0
BBX 12 27 1 -2
BITMAP
0C00
0400
0400
0400
1E00
3F80
35C0
76C0
6640
6600
6600
C600
C200
C200
C200
C200
C210
C230
C230
C270
C260
4260
62C0
3F80
1E00
0200
0600
ENDCHAR
STARTCHAR sterling
ENCODING 163
SWIDTH 539 0
DWIDTH 19 0
BBX 19 25 0 -1
BITMAP
000F00
003F80
007180
00C080
018000
030000
030000
020000
060800
1FF000
FF8000
640000
0C0000
0C0000
0C0000
0C0000
0C0000
0C0000
0C0000
0C0000
0C7F00
0CFFE0
0F81C0
0E0000
040000
ENDCHAR
STARTCHAR currency
ENCODING 164
SWIDTH 500 0
DWIDTH 18 0
BBX 14 21 1 3
BITMAP
0008
000C
101C
189C
1FF8
1FF0
0E70
0C30
0830
1830
0830
0830
0830
0C30
0C70
1CF0
3FE0
33F0
6030
E010
C000
ENDCHAR
STARTCHAR yen
ENCODING 165
SWIDTH 478 0
DWIDTH 17 0
BBX 13 29 2 0
BITMAP
0018
6038
3038
3070
3870
18E0
1CC0
1DC0
0F80
0F80
0700
0700
0300
0300
0300
03F8
7FF8
7FE0
0300
0300
1FF0
FF20
0300
0300
0300
0300
0300
0300
0200
ENDCHAR
STARTCHAR brokenbar
ENCODING 166
SWIDTH 137 0
DWIDTH 5 0
BBX 3 30 1 1
BITMAP
80
C0
C0
C0
C0
C0
C0
40
40
40
40
40
00
00
60
60
60
60
60
60
60
60
60
60
60
60
60
60
60
60
ENDCHAR
STARTCHAR section
ENCODING 167
SWIDTH 366 0
DWIDTH 13 0
BBX 12 28 1 -1
BITMAP
0380
0FC0
3880
7000
6000
C000
C000
C000
8080
C7E0
FFE0
7860
7060
60E0
C0C0
C180
C300
CFE0
FFE0
FC70
3030
0060
00E0
01C0
0380
0F00
1E00
1800
ENDCHAR
STARTCHAR dieresis
ENCODING 168
SWIDTH 306 0
DWIDTH 11 0
BBX 8 3 2 24
BITMAP
66
E7
44
ENDCHAR
STARTCHAR copyright
ENCODING 169
SWIDTH 485 0
DWIDTH 17 0
BBX 16 24 1 0
BITMAP
01F0
07F8
0E1C
1C0E
1806
3186
33C7
66C3
6663
4C03
CC03
CC03
CC07
CC0E
8C1E
8C3E
87FC
83DC
C018
C030
C060
73C0
7F80
3E00
ENDCHAR
STARTCHAR ordfeminine
ENCODING 170
SWIDTH 227 0
DWIDTH 8 0
BBX 7 9 0 5
BITMAP
1E
16
26
66
4A
DA
92
E2
42
ENDCHAR
STARTCHAR guillemotleft
ENCODING 171
SWIDTH 652 0
DWIDTH 23 0
BBX 19 18 2 5
BITMAP
001060
0030E0
0071C0
00E380
03C700
079E00
0E3800
1C7000
30E000
E18000
C38000
E1C000
78F000
3C3C00
0F1E00
03C7C0
01F1C0
0060C0
ENDCHAR
STARTCHAR logicalnot
ENCODING 172
SWIDTH 539 0
DWIDTH 19 0
BBX 16 9 2 5
BITMAP
7FFF
FFFF
0003
0003
0003
0003
0003
0003
0003
ENDCHAR
STARTCHAR uni00AD
ENCODING 173
SWIDTH 399 0
DWIDTH 14 0
BBX 14 5 0 7
BITMAP
0018
00FC
03F0
1F80
FC00
ENDCHAR
STARTCHAR registered
ENCODING 174
SWIDTH 382 0
DWIDTH 14 0
BBX 16 24 1 0
BITMAP
01C0
07F0
0FF8
181C
100C
3006
2CE6
6FF3
6C1B
6C33
CCE3
CFC3
CF03
CF03
8DC7
8CF6
8C3E
8C0E
C00C
C018
C038
70E0
7FC0
3F00
ENDCHAR
STARTCHAR macron
ENCODING 175
SWIDTH 399 0
DWIDTH 14 0
BBX 13 3 0 24
BITMAP
0078
7FF8
FF00
ENDCHAR
STARTCHAR degree
ENCODING 176
SWIDTH 201 0
DWIDTH 7 0
BBX 5 6 1 14
BITMAP
20
78
C8
88
C8
78
ENDCHAR
STARTCHAR plusminus
ENCODING 177
SWIDTH 466 0
DWIDTH 17 0
BBX 13 18 1 2
BITMAP
0600
0600
0600
0600
0600
0600
0600
06F8
07C0
7E00
F600
0600
0600
0200
0200
07F8
7FE0
2000
ENDCHAR
STARTCHAR twosuperior
ENCODING 178
SWIDTH 318 0
DWIDTH 11 0
BBX 10 12 1 5
BITMAP
0800
3800
C400
8400
0800
0800
0800
1800
1000
31C0
3E00
6000
ENDCHAR
STARTCHAR threesuperior
ENCODING 179
SWIDTH 280 0
DWIDTH 10 0
BBX 9 14 0 6
BITMAP
1E00
6200
C400
0400
0800
1700
3880
2080
0080
0080
0100
0600
0C00
0800
ENDCHAR
STARTCHAR acute
ENCODING 180
SWIDTH 155 0
DWIDTH 6 0
BBX 4 5 1 21
BITMAP
30
70
E0
C0
80
ENDCHAR
STARTCHAR mu
ENCODING 181
SWIDTH 387 0
DWIDTH 14 0
BBX 11 24 1 -5
BITMAP
C060
C060
C060
C060
C060
C060
C0E0
C0E0
C0E0
C0E0
C0E0
E1E0
E1E0
E3E0
E760
FE60
FC00
C000
C000
8000
8000
8000
8000
8000
ENDCHAR
STARTCHAR paragraph
ENCODING 182
SWIDTH 447 0
DWIDTH 16 0
BBX 14 23 1 0
BITMAP
07F8
3FF8
7FF8
FFD8
FFD8
FFD8
FFD8
FED8
70D8
00D8
00D8
00D8
00D8
00C8
00C8
00C8
00C8
0048
0048
0048
006C
004C
0040
ENDCHAR
STARTCHAR periodcentered
ENCODING 183
SWIDTH 128 0
DWIDTH 5 0
BBX 2 2 1 8
BITMAP
C0
C0
ENDCHAR
STARTCHAR cedilla
ENCODING 184
SWIDTH 322 0
DWIDTH 12 0
BBX 8 13 2 -11
BITMAP
40
40
C0
C0
E0
F8
7C
0F
07
03
0F
FF
78
ENDCHAR
STARTCHAR onesuperior
ENCODING 185
SWIDTH 112 0
DWIDTH 4 0
BBX 2 12 1 6
BITMAP
80
80
80
80
C0
C0
C0
C0
C0
C0
C0
40
ENDCHAR
STARTCHAR ordmasculine
ENCODING 186
SWIDTH 212 0
DWIDTH 8 0
BBX 6 10 1 5
BITMAP
70
48
C4
84
84
84
8C
8C
98
E0
ENDCHAR
STARTCHAR guillemotright
ENCODING 187
SWIDTH 625 0
DWIDTH 23 0
BBX 19 20 2 4
BITMAP
810000
E3C000
F8F000
3C7C00
0F1E00
03C780
00E1C0
007060
003040
0030C0
006180
00C300
038600
071C00
0E3800
1C7000
79E000
F1C000
C30000
820000
ENDCHAR
STARTCHAR onequarter
ENCODING 188
SWIDTH 678 0
DWIDTH 24 0
BBX 22 28 1 -3
BITMAP
00C000
00C000
008000
018000
018000
010000
830000
8300C0
8201C0
8603C0
8603C0
C606C0
C40CC0
CC18C0
CC10C0
C830C0
D860DC
D8C7F0
D3F8C0
7200C0
3000C0
2000C0
2000C0
6000C0
6000C0
400080
C00000
400000
ENDCHAR
STARTCHAR onehalf
ENCODING 189
SWIDTH 693 0
DWIDTH 25 0
BBX 20 28 2 -3
BITMAP
006000
004000
00C000
00C000
808000
818000
818000
818000
810000
830000
833C00
826C00
86C400
878600
850400
8C0400
8C0400
880C00
980800
180800
181800
101070
3037C0
307C00
204000
600000
600000
400000
ENDCHAR
STARTCHAR threequarters
ENCODING 190
SWIDTH 868 0
DWIDTH 31 0
BBX 24 28 1 -3
BITMAP
000030
000060
0F8060
398060
E18058
4100D8
0300F8
0600B8
0C01F8
1FE1F8
3811D8
101B98
001398
001318
003318
00661F
01C6F8
038F18
060C18
040C18
000818
001818
001818
001018
003018
003018
002000
002000
ENDCHAR
STARTCHAR questiondown
ENCODING 191
SWIDTH 541 0
DWIDTH 20 0
BBX 16 30 3 -1
BITMAP
0180
0180
0000
0000
0000
0000
0000
0000
0000
0000
0000
0100
0FE0
08E0
0060
0060
00E0
01C0
0380
0700
0E00
1800
3000
6000
6000
C000
C00F
C03E
FFF8
3F80
ENDCHAR
STARTCHAR Agrave
ENCODING 192
SWIDTH 390 0
DWIDTH 14 0
BBX 17 34 1 -2
BITMAP
080000
180000
1C0000
0E0000
060000
020000
180000
180000
1C0000
1C0000
1E0000
160000
320000
330000
310000
310000
318000
318000
30C000
30C000
30CF80
70FD80
70E000
63E000
7F6000
782000
603000
603000
603000
601000
401800
C01800
000800
000800
ENDCHAR
STARTCHAR Aacute
ENCODING 193
SWIDTH 390 0
DWIDTH 14 0
BBX 16 34 1 -1
BITMAP
0C00
1C00
3800
7000
2000
0000
1000
3800
3800
3C00
3C00
3600
3600
3200
3300
3300
7100
6180
6180
6180
60DF
60F9
61C0
63C0
7F60
7060
E060
C020
C030
C030
C010
C010
0018
0010
ENDCHAR
STARTCHAR Acircumflex
ENCODING 194
SWIDTH 390 0
DWIDTH 14 0
BBX 18 38 -1 -1
BITMAP
040000
0E0000
0F0000
1B0000
118000
30C000
606000
603000
C03000
C00000
040000
0E0000
0E0000
0F0000
0F0000
0D8000
0D8000
0C8000
0CC000
0CC000
1C4000
186000
186000
186000
1837C0
183E40
187000
18F000
1FD800
1C1800
381800
300800
300C00
300C00
300400
300400
000600
000400
ENDCHAR
STARTCHAR Atilde
ENCODING 195
SWIDTH 390 0
DWIDTH 14 0
BBX 17 38 0 -1
BITMAP
380000
7E1800
C63800
C77000
83E000
01C000
000000
000000
000000
000000
080000
1C0000
1C0000
1E0000
1E0000
1B0000
1B0000
190000
198000
198000
388000
30C000
30C000
30C000
306F80
307C80
30E000
31E000
3FB000
383000
703000
601000
601800
601800
600800
600800
000C00
000800
ENDCHAR
STARTCHAR Adieresis
ENCODING 196
SWIDTH 390 0
DWIDTH 14 0
BBX 16 33 1 -1
BITMAP
6300
7700
4200
0000
0000
1000
3800
3800
3C00
3C00
3600
3600
3200
3300
3300
7100
6180
6180
6180
60DF
60F9
61C0
63C0
7F60
7060
E060
C020
C030
C030
C010
C010
0018
0010
ENDCHAR
STARTCHAR Aring
ENCODING 197
SWIDTH 390 0
DWIDTH 14 0
BBX 17 33 0 -1
BITMAP
1E0000
7F0000
E30000
C10000
E30000
7F0000
1C0000
1C0000
1E0000
1E0000
1B0000
1B0000
190000
198000
198000
388000
30C000
30C000
30C000
306F80
307C80
30E000
31E000
3FB000
383000
703000
601000
601800
601800
600800
600800
000C00
000800
ENDCHAR
STARTCHAR AE
ENCODING 198
SWIDTH 708 0
DWIDTH 26 0
BBX 24 26 1 1
BITMAP
100000
38603C
3861F0
3C67C0
3C7F00
367C00
363000
322000
332000
333000
713018
61B030
61B0C0
61B380
60FE00
60F800
61F000
63F000
7F7003
70700E
E0701C
C03070
C030E0
C03380
C03F00
C03C00
ENDCHAR
STARTCHAR Ccedilla
ENCODING 199
SWIDTH 487 0
DWIDTH 18 0
BBX 16 37 1 -11
BITMAP
03E0
07E0
0630
0C10
1800
1800
3000
3000
3000
2000
6000
6000
6000
4000
C000
C000
C003
C006
C00E
C00C
C018
C038
C070
60C0
7F80
3E00
0400
0C00
0C00
0F00
0780
07E0
00F0
0030
0078
01F0
0FE0
ENDCHAR
STARTCHAR Egrave
ENCODING 200
SWIDTH 474 0
DWIDTH 17 0
BBX 15 33 1 0
BITMAP
0800
0800
0C00
0E00
0600
0200
0000
4038
E1E0
E780
7E00
7800
6000
6000
6000
6000
6010
6070
61E0
6380
2E00
3800
3000
3000
3006
300E
3038
3070
31C0
3380
3E00
3C00
2000
ENDCHAR
STARTCHAR Eacute
ENCODING 201
SWIDTH 474 0
DWIDTH 17 0
BBX 15 31 1 0
BITMAP
0080
01C0
0380
0700
0200
4038
E1E0
E780
7E00
7800
6000
6000
6000
6000
6010
6070
61E0
6380
2E00
3800
3000
3000
3006
300E
3038
3070
31C0
3380
3E00
3C00
2000
ENDCHAR
STARTCHAR Ecircumflex
ENCODING 202
SWIDTH 474 0
DWIDTH 17 0
BBX 15 38 1 0
BITMAP
0100
0300
0780
06C0
0C60
0C30
1818
101C
300C
2000
0000
0000
4038
E1E0
E780
7E00
7800
6000
6000
6000
6000
6010
6070
61E0
6380
2E00
3800
3000
3000
3006
300E
3038
3070
31C0
3380
3E00
3C00
2000
ENDCHAR
STARTCHAR Edieresis
ENCODING 203
SWIDTH 474 0
DWIDTH 17 0
BBX 15 32 1 0
BITMAP
0CC0
1CE0
0880
0000
0000
0000
4038
E1E0
E780
7E00
7800
6000
6000
6000
6000
6010
6070
61E0
6380
2E00
3800
3000
3000
3006
300E
3038
3070
31C0
3380
3E00
3C00
2000
ENDCHAR
STARTCHAR Igrave
ENCODING 204
SWIDTH 153 0
DWIDTH 6 0
BBX 4 34 1 0
BITMAP
80
80
C0
E0
60
20
00
60
60
60
60
60
60
60
60
60
60
60
60
20
20
20
20
20
20
20
20
20
20
20
20
30
30
20
ENDCHAR
STARTCHAR Iacute
ENCODING 205
SWIDTH 153 0
DWIDTH 6 0
BBX 4 34 1 0
BITMAP
10
30
70
E0
C0
00
00
60
60
60
60
60
60
60
60
60
60
60
60
20
20
20
20
20
20
20
20
20
20
20
20
30
30
20
ENDCHAR
STARTCHAR Icircumflex
ENCODING 206
SWIDTH 153 0
DWIDTH 6 0
BBX 13 37 -3 0
BITMAP
0400
0600
0F00
1980
18C0
30C0
3060
6038
4018
C000
0600
0600
0600
0600
0600
0600
0600
0600
0600
0600
0600
0600
0200
0200
0200
0200
0200
0200
0200
0200
0200
0200
0200
0200
0300
0300
0200
ENDCHAR
STARTCHAR Idieresis
ENCODING 207
SWIDTH 153 0
DWIDTH 6 0
BBX 8 32 -1 0
BITMAP
63
E7
42
00
00
18
18
18
18
18
18
18
18
18
18
18
18
08
08
08
08
08
08
08
08
08
08
08
08
0C
0C
08
ENDCHAR
STARTCHAR Eth
ENCODING 208
SWIDTH 554 0
DWIDTH 20 0
BBX 18 27 1 0
BITMAP
100000
100000
1FC000
3FFC00
F80F00
F80180
1800C0
1800C0
1800C0
1800C0
1800C0
180080
180180
180180
180300
180600
180600
1B8C00
7F9800
FF3800
187000
08E000
09C000
0B8000
030000
060000
040000
ENDCHAR
STARTCHAR Ntilde
ENCODING 209
SWIDTH 541 0
DWIDTH 19 0
BBX 17 34 1 0
BITMAP
1C0000
3F0C00
631C00
63B800
41F000
00E000
000200
000600
000600
000300
000300
C00300
E00300
F00300
F80300
F80300
7C0300
6E0300
670300
630300
618300
61C300
60C300
606300
603300
201B00
301B00
300F00
300700
300380
300380
300380
300000
100000
ENDCHAR
STARTCHAR Ograve
ENCODING 210
SWIDTH 382 0
DWIDTH 14 0
BBX 12 32 1 0
BITMAP
0100
0100
0180
01C0
00C0
0040
0000
0000
0780
0FC0
1C60
1870
3030
3030
6030
6030
6030
E030
C030
C030
C030
C030
8030
8060
8060
8060
C0C0
C0C0
C180
7700
7E00
3C00
ENDCHAR
STARTCHAR Oacute
ENCODING 211
SWIDTH 382 0
DWIDTH 14 0
BBX 12 31 1 0
BITMAP
0300
0700
0E00
1C00
0800
0000
0000
0780
0FC0
1C60
1870
3030
3030
6030
6030
6030
E030
C030
C030
C030
C030
8030
8060
8060
8060
C0C0
C0C0
C180
7700
7E00
3C00
ENDCHAR
STARTCHAR Ocircumflex
ENCODING 212
SWIDTH 382 0
DWIDTH 14 0
BBX 12 34 1 0
BITMAP
0400
0C00
1E00
1B00
3180
30C0
6060
4070
C030
8000
0780
0FC0
1C60
1870
3030
3030
6030
6030
6030
E030
C030
C030
C030
C030
8030
8060
8060
8060
C0C0
C0C0
C180
7700
7E00
3C00
ENDCHAR
STARTCHAR Otilde
ENCODING 213
SWIDTH 382 0
DWIDTH 14 0
BBX 14 32 1 0
BITMAP
0E00
3F0C
631C
639C
41F8
00E0
0000
0000
0780
0FC0
1C60
1870
3030
3030
6030
6030
6030
E030
C030
C030
C030
C030
8030
8060
8060
8060
C0C0
C0C0
C180
7700
7E00
3C00
ENDCHAR
STARTCHAR Odieresis
ENCODING 214
SWIDTH 382 0
DWIDTH 14 0
BBX 12 29 1 0
BITMAP
0660
0E70
0440
0000
0000
0780
0FC0
1C60
1870
3030
3030
6030
6030
6030
E030
C030
C030
C030
C030
8030
8060
8060
8060
C0C0
C0C0
C180
7700
7E00
3C00
ENDCHAR
STARTCHAR multiply
ENCODING 215
SWIDTH 454 0
DWIDTH 16 0
BBX 11 12 2 5
BITMAP
4000
6060
30C0
1180
1B00
0F00
0E00
1E00
3300
3180
E180
41C0
ENDCHAR
STARTCHAR Oslash
ENCODING 216
SWIDTH 382 0
DWIDTH 14 0
BBX 12 28 1 -3
BITMAP
0060
07C0
0FC0
1CE0
18F0
31B0
31B0
6130
6330
6330
E330
C230
C630
C630
C430
8C30
8C60
8860
9860
D8C0
D0C0
F180
7700
7E00
3C00
6000
6000
4000
ENDCHAR
STARTCHAR Ugrave
ENCODING 217
SWIDTH 450 0
DWIDTH 16 0
BBX 15 33 1 -4
BITMAP
0400
0400
0600
0700
0300
0100
0000
000C
C00C
C00C
C01C
C01C
C01C
C01C
C01C
C01C
C03C
C03C
C03C
C03C
C03C
C06C
406C
404C
60CC
618C
738C
3F04
1804
0004
0004
0006
0004
ENDCHAR
STARTCHAR Uacute
ENCODING 218
SWIDTH 450 0
DWIDTH 16 0
BBX 15 30 1 -4
BITMAP
00C0
01C0
0380
0300
020C
C00C
C00C
C01C
C01C
C01C
C01C
C01C
C01C
C03C
C03C
C03C
C03C
C03C
C06C
406C
404C
60CC
618C
738C
3F04
1804
0004
0004
0006
0004
ENDCHAR
STARTCHAR Ucircumflex
ENCODING 219
SWIDTH 450 0
DWIDTH 16 0
BBX 15 38 1 -4
BITMAP
0200
0700
0700
0D80
18C0
1860
3030
3038
6018
4000
0000
0000
000C
C00C
C00C
C01C
C01C
C01C
C01C
C01C
C01C
C03C
C03C
C03C
C03C
C03C
C06C
406C
404C
60CC
618C
738C
3F04
1804
0004
0004
0006
0004
ENDCHAR
STARTCHAR Udieresis
ENCODING 220
SWIDTH 450 0
DWIDTH 16 0
BBX 15 31 1 -4
BITMAP
0C60
1CE0
0840
0000
0000
000C
C00C
C00C
C01C
C01C
C01C
C01C
C01C
C01C
C03C
C03C
C03C
C03C
C03C
C06C
406C
404C
60CC
618C
738C
3F04
1804
0004
0004
0006
0004
ENDCHAR
STARTCHAR Yacute
ENCODING 221
SWIDTH 483 0
DWIDTH 17 0
BBX 17 34 0 0
BITMAP
003000
007000
00E000
00C000
008000
000000
000100
000180
000100
000300
000300
C00200
600600
600600
300600
380C00
1C0C00
0E0C00
061800
031800
039800
01F000
00F000
007000
006000
006000
006000
00C000
00C000
00C000
018000
018000
018000
010000
ENDCHAR
STARTCHAR Thorn
ENCODING 222
SWIDTH 398 0
DWIDTH 14 0
BBX 13 28 1 1
BITMAP
6000
6000
6000
4000
4000
4040
47E0
CFF0
DC30
F818
F018
E018
E018
C030
C030
C060
C0E0
C1C0
C300
DE00
F800
F000
C000
C000
C000
C000
C000
C000
ENDCHAR
STARTCHAR germandbls
ENCODING 223
SWIDTH 537 0
DWIDTH 19 0
BBX 18 26 1 0
BITMAP
01F000
07F800
DE1800
F81800
F03000
603000
606000
60C000
618600
637F80
67C1C0
6F0080
3E0180
3C0100
380300
300600
300C00
301800
303800
107000
10E000
19C000
198000
1B0000
180000
180000
ENDCHAR
STARTCHAR agrave
ENCODING 224
SWIDTH 366 0
DWIDTH 13 0
BBX 12 27 0 0
BITMAP
0800
0C00
0E00
0600
0300
0100
0000
0000
01E0
03E0
0760
0E60
1C60
1860
38E0
30E0
31E0
61B0
63B0
6330
C730
C630
CC30
DC10
F810
7010
2010
ENDCHAR
STARTCHAR aacute
ENCODING 225
SWIDTH 366 0
DWIDTH 13 0
BBX 12 26 0 0
BITMAP
0080
0180
0380
0700
0600
0000
0000
01E0
03E0
0760
0E60
1C60
1860
38E0
30E0
31E0
61B0
63B0
6330
C730
C630
CC30
DC10
F810
7010
2010
ENDCHAR
STARTCHAR acircumflex
ENCODING 226
SWIDTH 366 0
DWIDTH 13 0
BBX 13 34 0 0
BITMAP
0200
0600
0F00
0980
18C0
30E0
3060
6038
6018
C000
0000
0000
0000
0000
0000
01E0
03E0
0760
0E60
1C60
1860
38E0
30E0
31E0
61B0
63B0
6330
C730
C630
CC30
DC10
F810
7010
2010
ENDCHAR
STARTCHAR atilde
ENCODING 227
SWIDTH 366 0
DWIDTH 13 0
BBX 14 27 0 0
BITMAP
0C00
3F0C
731C
619C
61F8
00E0
0000
0000
01E0
03E0
0760
0E60
1C60
1860
38E0
30E0
31E0
61B0
63B0
6330
C730
C630
CC30
DC10
F810
7010
2010
ENDCHAR
STARTCHAR adieresis
ENCODING 228
SWIDTH 366 0
DWIDTH 13 0
BBX 12 27 0 0
BITMAP
0CC0
1CC0
1080
0000
0000
0000
0000
0000
01E0
03E0
0760
0E60
1C60
1860
38E0
30E0
31E0
61B0
63B0
6330
C730
C630
CC30
DC10
F810
7010
2010
ENDCHAR
STARTCHAR aring
ENCODING 229
SWIDTH 366 0
DWIDTH 13 0
BBX 12 24 0 0
BITMAP
0FE0
1C60
1820
1860
0FE0
07E0
03E0
0760
0E60
1C60
1860
38E0
30E0
31E0
61B0
63B0
6330
C730
C630
CC30
DC10
F810
7010
2010
ENDCHAR
STARTCHAR ae
ENCODING 230
SWIDTH 705 0
DWIDTH 25 0
BBX 25 20 0 0
BITMAP
0001F000
01E3F800
03E71C00
07661C00
0E6C3800
1C6C7000
187DC000
38FF8000
30FE0000
31F80100
61F80380
63B80300
63380700
C7380E00
C6381C00
CC383800
DC187000
F81FC000
70170000
20100000
ENDCHAR
STARTCHAR ccedilla
ENCODING 231
SWIDTH 390 0
DWIDTH 14 0
BBX 12 32 1 -11
BITMAP
1E00
3F00
3300
7300
6300
6100
6000
C000
C000
C000
C000
C000
C010
C030
C030
C070
C060
4060
60C0
3F80
1E00
1800
1800
1800
1E00
1F80
03C0
00E0
00E0
01E0
1FC0
1F00
ENDCHAR
STARTCHAR egrave
ENCODING 232
SWIDTH 461 0
DWIDTH 17 0
BBX 16 27 0 0
BITMAP
0200
0300
0300
0180
01C0
0080
0000
0000
03E0
07F0
0E38
0C38
1C30
18E0
3BC0
3F00
7C00
7000
F003
B006
300E
301C
3018
3030
30E0
1FC0
0F00
ENDCHAR
STARTCHAR eacute
ENCODING 233
SWIDTH 461 0
DWIDTH 17 0
BBX 16 26 0 0
BITMAP
0020
00E0
00C0
01C0
0100
0000
0000
03E0
07F0
0E38
0C38
1C30
18E0
3BC0
3F00
7C00
7000
F003
B006
300E
301C
3018
3030
30E0
1FC0
0F00
ENDCHAR
STARTCHAR ecircumflex
ENCODING 234
SWIDTH 461 0
DWIDTH 17 0
BBX 16 34 0 0
BITMAP
0100
0380
03C0
0640
0660
0C30
0818
180C
1006
3000
0000
0000
0000
0000
0000
03E0
07F0
0E38
0C38
1C30
18E0
3BC0
3F00
7C00
7000
F003
B006
300E
301C
3018
3030
30E0
1FC0
0F00
ENDCHAR
STARTCHAR edieresis
ENCODING 235
SWIDTH 461 0
DWIDTH 17 0
BBX 16 27 0 0
BITMAP
0630
0670
0420
0000
0000
0000
0000
0000
03E0
07F0
0E38
0C38
1C30
18E0
3BC0
3F00
7C00
7000
F003
B006
300E
301C
3018
3030
30E0
1FC0
0F00
ENDCHAR
STARTCHAR igrave
ENCODING 236
SWIDTH 132 0
DWIDTH 5 0
BBX 3 29 0 0
BITMAP
80
C0
E0
60
20
00
00
00
00
60
60
60
60
60
60
60
60
60
60
60
60
60
60
60
60
60
60
60
60
ENDCHAR
STARTCHAR iacute
ENCODING 237
SWIDTH 132 0
DWIDTH 5 0
BBX 4 30 1 0
BITMAP
30
70
E0
C0
80
00
00
00
00
00
C0
C0
C0
C0
C0
C0
C0
C0
C0
C0
C0
C0
C0
C0
C0
C0
C0
C0
C0
C0
ENDCHAR
STARTCHAR icircumflex
ENCODING 238
SWIDTH 132 0
DWIDTH 5 0
BBX 13 34 -4 0
BITMAP
0400
0E00
0F00
1980
1980
30C0
2060
6038
4018
C000
0000
0000
0000
0000
0600
0600
0600
0600
0600
0600
0600
0600
0600
0600
0600
0600
0600
0600
0600
0600
0600
0600
0600
0600
ENDCHAR
STARTCHAR idieresis
ENCODING 239
SWIDTH 132 0
DWIDTH 5 0
BBX 7 27 -1 0
BITMAP
C6
EE
84
00
00
00
00
30
30
30
30
30
30
30
30
30
30
30
30
30
30
30
30
30
30
30
30
ENDCHAR
STARTCHAR eth
ENCODING 240
SWIDTH 481 0
DWIDTH 17 0
BBX 15 22 2 0
BITMAP
0E00
0600
0700
0300
0380
0184
0FFE
1FE0
10C0
0060
0060
3C20
7E30
7FB0
C1B0
C0F0
C0E0
40E0
60C0
61C0
3F80
1E00
ENDCHAR
STARTCHAR ntilde
ENCODING 241
SWIDTH 483 0
DWIDTH 17 0
BBX 15 30 1 0
BITMAP
0E00
1F86
318E
31DC
20F8
0070
0000
0000
0000
8030
C0F8
C1F8
C38C
C30C
C70C
C604
E606
6606
6C06
6C06
6C06
6806
7806
7806
7806
7006
7006
7006
7006
6000
ENDCHAR
STARTCHAR ograve
ENCODING 242
SWIDTH 266 0
DWIDTH 10 0
BBX 8 27 1 0
BITMAP
20
60
70
38
18
08
00
38
7C
7C
62
42
C3
C3
C3
C3
C3
C3
C3
C3
C3
C6
C6
CE
DC
F8
70
ENDCHAR
STARTCHAR oacute
ENCODING 243
SWIDTH 266 0
DWIDTH 10 0
BBX 8 26 1 0
BITMAP
06
0E
1C
38
10
00
38
7C
7C
62
42
C3
C3
C3
C3
C3
C3
C3
C3
C3
C6
C6
CE
DC
F8
70
ENDCHAR
STARTCHAR ocircumflex
ENCODING 244
SWIDTH 266 0
DWIDTH 10 0
BBX 12 34 -1 0
BITMAP
0400
0C00
1E00
1B00
3180
20C0
60E0
4070
C030
8000
0000
0000
0000
0000
0E00
1F00
1F00
1880
1080
30C0
30C0
30C0
30C0
30C0
30C0
30C0
30C0
30C0
3180
3180
3380
3700
3E00
1C00
ENDCHAR
STARTCHAR otilde
ENCODING 245
SWIDTH 266 0
DWIDTH 10 0
BBX 14 28 -1 0
BITMAP
1C00
7E1C
E618
C338
C3F0
01E0
0000
0000
0E00
1F00
1F00
1880
1080
30C0
30C0
30C0
30C0
30C0
30C0
30C0
30C0
30C0
3180
3180
3380
3700
3E00
1C00
ENDCHAR
STARTCHAR odieresis
ENCODING 246
SWIDTH 266 0
DWIDTH 10 0
BBX 8 27 1 0
BITMAP
67
E7
44
00
00
00
00
38
7C
7C
62
42
C3
C3
C3
C3
C3
C3
C3
C3
C3
C6
C6
CE
DC
F8
70
ENDCHAR
STARTCHAR divide
ENCODING 247
SWIDTH 345 0
DWIDTH 12 0
BBX 11 11 1 4
BITMAP
0C00
0C00
0000
01C0
FFE0
F000
0000
0000
0000
0C00
0C00
ENDCHAR
STARTCHAR oslash
ENCODING 248
SWIDTH 266 0
DWIDTH 10 0
BBX 10 24 0 -3
BITMAP
00C0
1980
3F80
3F00
3300
2300
6380
6780
6780
6580
6D80
6D80
6980
7980
7180
7300
7300
6700
6E00
7C00
7800
C000
C000
8000
ENDCHAR
STARTCHAR ugrave
ENCODING 249
SWIDTH 387 0
DWIDTH 14 0
BBX 12 28 1 -1
BITMAP
0800
1800
0C00
0E00
0600
0200
0000
0000
0000
0000
C060
C060
C060
C060
C060
C060
C0E0
C0E0
C0E0
C0E0
41E0
61E0
63E0
63E0
6760
3E60
3C30
0020
ENDCHAR
STARTCHAR uacute
ENCODING 250
SWIDTH 387 0
DWIDTH 14 0
BBX 12 27 1 -1
BITMAP
0180
0380
0700
0600
0400
0000
0000
0000
0000
C060
C060
C060
C060
C060
C060
C0E0
C0E0
C0E0
C0E0
41E0
61E0
63E0
63E0
6760
3E60
3C30
0020
ENDCHAR
STARTCHAR ucircumflex
ENCODING 251
SWIDTH 387 0
DWIDTH 14 0
BBX 12 35 1 -1
BITMAP
0400
0E00
1E00
1B00
3180
30C0
6060
6070
C030
8000
0000
0000
0000
0000
0000
0000
0000
C060
C060
C060
C060
C060
C060
C0E0
C0E0
C0E0
C0E0
41E0
61E0
63E0
63E0
6760
3E60
3C30
0020
ENDCHAR
STARTCHAR udieresis
ENCODING 252
SWIDTH 387 0
DWIDTH 14 0
BBX 12 28 1 -1
BITMAP
18C0
39C0
1080
0000
0000
0000
0000
0000
0000
0000
C060
C060
C060
C060
C060
C060
C0E0
C0E0
C0E0
C0E0
41E0
61E0
63E0
63E0
6760
3E60
3C30
0020
ENDCHAR
STARTCHAR yacute
ENCODING 253
SWIDTH 363 0
DWIDTH 13 0
BBX 11 39 1 -13
BITMAP
0100
0300
0700
0E00
0C00
0000
0000
0020
0020
0020
C020
E020
6060
7060
3060
3860
1860
0C60
0E60
0660
0360
03E0
01E0
01E0
00E0
0060
0060
0060
0060
0060
0040
00C0
00C0
00C0
00C0
00C0
00C0
00C0
00C0
ENDCHAR
STARTCHAR thorn
ENCODING 254
SWIDTH 439 0
DWIDTH 16 0
BBX 14 24 1 -1
BITMAP
C000
C1F0
C7FC
CE0C
F80C
F00C
E018
C018
C030
C060
40C0
4380
4F00
7E00
7800
7000
6000
4000
4000
4000
C000
C000
C000
C000
ENDCHAR
STARTCHAR ydieresis
ENCODING 255
SWIDTH 363 0
DWIDTH 13 0
BBX 11 40 1 -13
BITMAP
3980
3980
2100
0000
0000
0000
0000
0000
0020
0020
0020
C020
E020
6060
7060
3060
3860
1860
0C60
0E60
0660
0360
03E0
01E0
01E0
00E0
0060
0060
0060
0060
0060
0040
00C0
00C0
00C0
00C0
00C0
00C0
00C0
00C0
ENDCHAR
STARTCHAR Amacron
ENCODING 256
SWIDTH 390 0
DWIDTH 14 0
BBX 17 33 0 -1
BITMAP
007800
FFF800
FE0000
000000
000000
080000
1C0000
1C0000
1E0000
1E0000
1B0000
1B0000
190000
198000
198000
388000
30C000
30C000
30C000
306F80
307C80
30E000
31E000
3FB000
383000
703000
601000
601800
601800
600800
600800
000C00
000800
ENDCHAR
STARTCHAR amacron
ENCODING 257
SWIDTH 366 0
DWIDTH 13 0
BBX 13 27 0 0
BITMAP
0078
7FF8
FE00
0000
0000
0000
0000
0000
01E0
03E0
0760
0E60
1C60
1860
38E0
30E0
31E0
61B0
63B0
6330
C730
C630
CC30
DC10
F810
7010
2010
ENDCHAR
STARTCHAR Abreve
ENCODING 258
SWIDTH 390 0
DWIDTH 14 0
BBX 16 36 1 -1
BITMAP
0080
60C0
6180
3F80
1F00
0400
0000
0000
1000
3800
3800
3C00
3C00
3600
3600
3200
3300
3300
7100
6180
6180
6180
60DF
60F9
61C0
63C0
7F60
7060
E060
C020
C030
C030
C010
C010
0018
0010
ENDCHAR
STARTCHAR abreve
ENCODING 259
SWIDTH 366 0
DWIDTH 13 0
BBX 12 27 0 0
BITMAP
0020
1060
18E0
0FC0
0780
0200
0000
0000
01E0
03E0
0760
0E60
1C60
1860
38E0
30E0
31E0
61B0
63B0
6330
C730
C630
CC30
DC10
F810
7010
2010
ENDCHAR
STARTCHAR Aogonek
ENCODING 260
SWIDTH 390 0
DWIDTH 14 0
BBX 16 36 1 -9
BITMAP
1000
3800
3800
3C00
3C00
3600
3600
3200
3300
3300
7100
6180
6180
6180
60DF
60F9
61C0
63C0
7F60
7060
E060
C020
C030
C030
C010
C010
0018
0030
0060
00C0
00C0
00C0
00C0
00C7
007F
003C
ENDCHAR
STARTCHAR aogonek
ENCODING 261
SWIDTH 366 0
DWIDTH 13 0
BBX 16 26 0 -7
BITMAP
01E0
03E0
0760
0E60
1C60
1860
38E0
30E0
31E0
61B0
63B0
6330
C730
C630
CC30
DC10
F810
7030
2070
00E0
00C0
00C0
0080
00C3
00FF
007E
ENDCHAR
STARTCHAR Cacute
ENCODING 262
SWIDTH 487 0
DWIDTH 18 0
BBX 16 32 1 0
BITMAP
00C0
01C0
0180
0300
0200
0000
03E0
07E0
0630
0C10
1800
1800
3000
3000
3000
2000
6000
6000
6000
4000
C000
C000
C003
C006
C00E
C00C
C018
C038
C070
60C0
7F80
3E00
ENDCHAR
STARTCHAR cacute
ENCODING 263
SWIDTH 390 0
DWIDTH 14 0
BBX 12 29 1 0
BITMAP
0300
0700
0E00
0C00
0800
0000
0000
0000
1E00
3F00
3300
7300
6300
6100
6000
C000
C000
C000
C000
C000
C010
C030
C030
C070
C060
4060
60C0
3F80
1E00
ENDCHAR
STARTCHAR Ccircumflex
ENCODING 264
SWIDTH 487 0
DWIDTH 18 0
BBX 16 36 1 0
BITMAP
0200
0300
0780
04C0
0C60
1870
1830
301C
300C
6000
03E0
07E0
0630
0C10
1800
1800
3000
3000
3000
2000
6000
6000
6000
4000
C000
C000
C003
C006
C00E
C00C
C018
C038
C070
60C0
7F80
3E00
ENDCHAR
STARTCHAR ccircumflex
ENCODING 265
SWIDTH 390 0
DWIDTH 14 0
BBX 12 34 1 0
BITMAP
0400
0E00
0E00
1B00
3180
30C0
6060
6030
C030
8000
0000
0000
0000
1E00
3F00
3300
7300
6300
6100
6000
C000
C000
C000
C000
C000
C010
C030
C030
C070
C060
4060
60C0
3F80
1E00
ENDCHAR
STARTCHAR Cdotaccent
ENCODING 266
SWIDTH 487 0
DWIDTH 18 0
BBX 16 32 1 0
BITMAP
0180
0380
0000
0000
0000
0000
03E0
07E0
0630
0C10
1800
1800
3000
3000
3000
2000
6000
6000
6000
4000
C000
C000
C003
C006
C00E
C00C
C018
C038
C070
60C0
7F80
3E00
ENDCHAR
STARTCHAR cdotaccent
ENCODING 267
SWIDTH 390 0
DWIDTH 14 0
BBX 12 25 1 0
BITMAP
0800
1800
0800
0000
1E00
3F00
3300
7300
6300
6100
E000
C000
C000
C000
C000
C000
C010
C030
C030
C060
C060
40E0
60C0
3F80
1E00
ENDCHAR
STARTCHAR Ccaron
ENCODING 268
SWIDTH 487 0
DWIDTH 18 0
BBX 16 34 1 0
BITMAP
2000
100C
1818
0C20
06C0
0780
0300
0000
03E0
07E0
0630
0C10
1800
1800
3000
3000
3000
2000
6000
6000
6000
4000
C000
C000
C003
C006
C00E
C00C
C018
C038
C070
60C0
7F80
3E00
ENDCHAR
STARTCHAR ccaron
ENCODING 269
SWIDTH 390 0
DWIDTH 14 0
BBX 12 29 1 0
BITMAP
C000
4030
6060
30C0
1900
0E00
0C00
0000
1E00
3F00
3300
7300
6300
6100
6000
C000
C000
C000
C000
C000
C010
C030
C030
C070
C060
4060
60C0
3F80
1E00
ENDCHAR
STARTCHAR Dcaron
ENCODING 270
SWIDTH 554 0
DWIDTH 20 0
BBX 18 34 1 0
BITMAP
080000
0C0700
060C00
021800
033000
01E000
00C000
100000
100000
1FC000
3FFC00
F80F00
F80180
1800C0
1800C0
1800C0
1800C0
1800C0
180080
180180
180180
180300
180600
180600
180C00
181800
183800
087000
08E000
09C000
0B8000
030000
060000
040000
ENDCHAR
STARTCHAR Emacron
ENCODING 274
SWIDTH 474 0
DWIDTH 17 0
BBX 15 31 1 0
BITMAP
0078
7FF8
FE00
0000
0000
4038
E1E0
E780
7E00
7800
6000
6000
6000
6000
6010
6070
61E0
6380
2E00
3800
3000
3000
3006
300E
3038
3070
31C0
3380
3E00
3C00
2000
ENDCHAR
STARTCHAR emacron
ENCODING 275
SWIDTH 461 0
DWIDTH 17 0
BBX 16 27 0 0
BITMAP
001E
3FFE
3F80
0000
0000
0000
0000
0000
03E0
07F0
0E38
0C38
1C30
18E0
3BC0
3F00
7C00
7000
F003
B006
300E
301C
3018
3030
30E0
1FC0
0F00
ENDCHAR
STARTCHAR Ebreve
ENCODING 276
SWIDTH 474 0
DWIDTH 17 0
BBX 15 33 1 0
BITMAP
0010
1830
0C70
07E0
07C0
0100
0000
4038
E1E0
E780
7E00
7800
6000
6000
6000
6000
6010
6070
61E0
6380
2E00
3800
3000
3000
3006
300E
3038
3070
31C0
3380
3E00
3C00
2000
ENDCHAR
STARTCHAR ebreve
ENCODING 277
SWIDTH 461 0
DWIDTH 17 0
BBX 16 27 0 0
BITMAP
0008
0C18
0638
03F0
01E0
0080
0000
0000
03E0
07F0
0E38
0C38
1C30
18E0
3BC0
3F00
7C00
7000
F003
B006
300E
301C
3018
3030
30E0
1FC0
0F00
ENDCHAR
STARTCHAR Edotaccent
ENCODING 278
SWIDTH 474 0
DWIDTH 17 0
BBX 15 29 1 0
BITMAP
0600
0600
0000
4038
E1E0
E780
7E00
7800
6000
6000
6000
6000
6010
6070
61E0
6380
2E00
3800
3000
3000
3006
300E
3038
3070
31C0
3380
3E00
3C00
2000
ENDCHAR
STARTCHAR edotaccent
ENCODING 279
SWIDTH 461 0
DWIDTH 17 0
BBX 16 22 0 0
BITMAP
01C0
01C0
0000
03E0
07F0
0E38
0C38
1C30
18E0
3BC0
3F00
7C00
7000
F003
B006
300E
301C
3018
3030
30E0
1FC0
0F00
ENDCHAR
STARTCHAR Eogonek
ENCODING 280
SWIDTH 474 0
DWIDTH 17 0
BBX 15 29 1 -3
BITMAP
4038
E1E0
E780
7E00
7800
6000
6000
6000
6000
6010
6070
61E0
6380
2E00
3800
3000
3000
3006
300E
3038
3070
31E0
3380
3F80
3F00
2300
0306
01FE
00FC
ENDCHAR
STARTCHAR eogonek
ENCODING 281
SWIDTH 461 0
DWIDTH 17 0
BBX 16 26 0 -7
BITMAP
03E0
07F0
0E38
0C38
1C30
18E0
3BC0
3F00
7C00
7000
F003
B006
300E
301C
3018
3030
30E0
1FC0
0F80
0700
0600
0600
0400
0618
07F8
03F0
ENDCHAR
STARTCHAR Ecaron
ENCODING 282
SWIDTH 474 0
DWIDTH 17 0
BBX 15 33 1 0
BITMAP
4000
2018
3030
1860
0D80
0700
0600
4038
E1E0
E780
7E00
7800
6000
6000
6000
6000
6010
6070
61E0
6380
2E00
3800
3000
3000
3006
300E
3038
3070
31C0
3380
3E00
3C00
2000
ENDCHAR
STARTCHAR ecaron
ENCODING 283
SWIDTH 461 0
DWIDTH 17 0
BBX 16 29 0 0
BITMAP
3000
180C
0818
0C30
0660
0380
0100
0000
0000
0000
03E0
07F0
0E38
0C38
1C30
18E0
3BC0
3F00
7C00
7000
F003
B006
300E
301C
3018
3030
30E0
1FC0
0F00
ENDCHAR
STARTCHAR Gcircumflex
ENCODING 284
SWIDTH 591 0
DWIDTH 21 0
BBX 20 38 1 -4
BITMAP
008000
00C000
01E000
033000
031800
061800
060C00
0C0700
0C0300
180000
000000
007C00
00F000
01C000
030000
060000
060000
0C0000
180000
180000
3007F0
303FC0
6001C0
600180
400380
C00380
C00780
C00F80
C01D80
C03980
C0F180
FFE180
7F8180
0C0180
000180
000180
000180
000080
ENDCHAR
STARTCHAR gcircumflex
ENCODING 285
SWIDTH 437 0
DWIDTH 16 0
BBX 14 49 1 -15
BITMAP
0200
0600
0F00
0D80
18C0
1060
3070
2038
6018
4000
0000
0000
0000
0000
00E0
03F0
0770
0C70
1870
18F8
30F8
20B8
61B8
61B8
C318
C318
C618
8E18
8C18
DC18
F818
7018
001C
001C
001C
0018
0018
0018
0018
0018
0030
0030
0030
0060
0060
00C0
01C0
0F80
3F00
ENDCHAR
STARTCHAR Gbreve
ENCODING 286
SWIDTH 591 0
DWIDTH 21 0
BBX 20 34 1 -4
BITMAP
000200
030600
018E00
00FC00
00F800
002000
000000
007C00
00F000
01C000
030000
060000
060000
0C0000
180000
180000
3007F0
303FC0
6001C0
600180
400380
C00380
C00780
C00F80
C01D80
C03980
C0F180
FFE180
7F8180
0C0180
000180
000180
000180
000080
ENDCHAR
STARTCHAR gbreve
ENCODING 287
SWIDTH 437 0
DWIDTH 16 0
BBX 14 44 1 -15
BITMAP
0020
1830
1860
0FE0
07C0
0100
0000
0000
0000
00E0
03F0
0770
0C70
1870
18F8
30F8
20B8
61B8
61B8
C318
C318
C618
8E18
8C18
DC18
F818
7018
001C
001C
001C
0018
0018
0018
0018
0018
0030
0030
0030
0060
0060
00C0
01C0
0F80
3F00
ENDCHAR
STARTCHAR Gdotaccent
ENCODING 288
SWIDTH 591 0
DWIDTH 21 0
BBX 20 33 1 -4
BITMAP
006000
006000
000000
000000
000000
000000
003E00
007800
00C000
018000
030000
060000
060000
0C0000
180000
1803F0
301FE0
3000C0
2001C0
6001C0
6003C0
6003C0
400780
C00E80
C01C80
607880
7FE180
3FC1C0
0601C0
0001C0
0000C0
0000C0
000080
ENDCHAR
STARTCHAR gdotaccent
ENCODING 289
SWIDTH 437 0
DWIDTH 16 0
BBX 14 39 1 -15
BITMAP
00C0
01C0
0000
0000
00E0
03F0
0770
0C70
1870
18F8
30F8
20B8
61B8
61B8
C318
C318
C618
8E18
8C18
DC18
F818
7018
001C
001C
001C
0018
0018
0018
0018
0018
0030
0030
0030
0060
0060
00C0
01C0
0F80
3F00
ENDCHAR
STARTCHAR Gcommaaccent
ENCODING 290
SWIDTH 591 0
DWIDTH 21 0
BBX 20 35 1 -12
BITMAP
007C00
00F000
01C000
030000
060000
060000
0C0000
180000
180000
3007F0
303FC0
6001C0
600180
400380
C00380
C00780
C00F80
C01D80
C03980
C0F180
FFE180
7F8180
0C0180
000180
000180
000180
004080
00E000
00E000
00E000
00E000
00C000
00C000
00C000
008000
ENDCHAR
STARTCHAR Hcircumflex
ENCODING 292
SWIDTH 424 0
DWIDTH 15 0
BBX 13 37 1 0
BITMAP
0400
0E00
0E00
1B00
3180
30C0
6060
6030
C030
8000
0000
0000
0000
C060
C060
C060
C020
C020
C030
C030
C030
C030
C030
C070
C0F0
C390
6F10
7C10
7018
6018
4018
4018
4018
4018
6018
6018
4008
ENDCHAR
STARTCHAR hcircumflex
ENCODING 293
SWIDTH 466 0
DWIDTH 17 0
BBX 16 34 1 0
BITMAP
0040
00E0
00E0
01B0
0318
030C
0606
8603
CC03
C800
C000
C000
C000
C000
C000
C000
C030
C0FC
C1EE
C386
C786
C706
CE06
CE06
CC06
DC06
D806
D806
F006
F006
E006
E006
C006
8006
ENDCHAR
STARTCHAR Hbar
ENCODING 294
SWIDTH 424 0
DWIDTH 15 0
BBX 13 24 1 0
BITMAP
C060
C060
C060
C020
C020
C030
CFF8
FFF0
C030
C030
C070
C0F0
C390
EF10
7C10
7018
6018
4018
4018
4018
4018
6018
6018
4008
ENDCHAR
STARTCHAR hbar
ENCODING 295
SWIDTH 466 0
DWIDTH 17 0
BBX 18 27 -2 0
BITMAP
100000
180000
180000
180000
180000
180000
180000
183000
3FF800
FF8600
181F80
183DC0
1870C0
18F0C0
18E0C0
19C0C0
19C0C0
1980C0
1B80C0
1B00C0
1B00C0
1E00C0
1E00C0
1C00C0
1C00C0
1800C0
1000C0
ENDCHAR
STARTCHAR Itilde
ENCODING 296
SWIDTH 153 0
DWIDTH 6 0
BBX 14 36 -4 0
BITMAP
1C00
7E1C
671C
E338
C1F0
00E0
0000
0000
0000
0300
0300
0300
0300
0300
0300
0300
0300
0300
0300
0300
0300
0100
0100
0100
0100
0100
0100
0100
0100
0100
0100
0100
0100
0180
0180
0100
ENDCHAR
STARTCHAR itilde
ENCODING 297
SWIDTH 132 0
DWIDTH 5 0
BBX 13 28 -4 0
BITMAP
7E18
EE18
C738
C3F0
03E0
0080
0000
0000
0600
0600
0600
0600
0600
0600
0600
0600
0600
0600
0600
0600
0600
0600
0600
0600
0600
0600
0600
0600
ENDCHAR
STARTCHAR imacron
ENCODING 299
SWIDTH 132 0
DWIDTH 5 0
BBX 13 27 -4 0
BITMAP
0078
FFF8
FE00
0000
0000
0000
0000
0600
0600
0600
0600
0600
0600
0600
0600
0600
0600
0600
0600
0600
0600
0600
0600
0600
0600
0600
0600
ENDCHAR
STARTCHAR Ibreve
ENCODING 300
SWIDTH 153 0
DWIDTH 6 0
BBX 9 35 -1 0
BITMAP
0100
8380
C300
7E00
3C00
0800
0000
0000
1800
1800
1800
1800
1800
1800
1800
1800
1800
1800
1800
1800
0800
0800
0800
0800
0800
0800
0800
0800
0800
0800
0800
0800
0C00
0C00
0800
ENDCHAR
STARTCHAR ibreve
ENCODING 301
SWIDTH 132 0
DWIDTH 5 0
BBX 9 28 -2 0
BITMAP
C180
6180
7F00
3E00
0C00
0000
0000
0000
1800
1800
1800
1800
1800
1800
1800
1800
1800
1800
1800
1800
1800
1800
1800
1800
1800
1800
1800
1800
ENDCHAR
STARTCHAR Iogonek
ENCODING 302
SWIDTH 153 0
DWIDTH 6 0
BBX 9 34 0 -7
BITMAP
3000
3000
3000
3000
3000
3000
3000
3000
3000
3000
3000
3000
1000
1000
1000
1000
1000
1000
1000
1000
1000
1000
1000
1000
1800
3800
7000
6000
6000
C000
C000
6380
7F00
3E00
ENDCHAR
STARTCHAR iogonek
ENCODING 303
SWIDTH 132 0
DWIDTH 5 0
BBX 9 35 -1 -8
BITMAP
2000
3000
2000
0000
0000
0000
0000
3000
3000
3000
3000
3000
3000
3000
3000
3000
3000
3000
3000
3000
3000
3000
3000
3000
3000
3000
3800
7000
6000
C000
C000
C000
C380
7F00
7E00
ENDCHAR
STARTCHAR Idotaccent
ENCODING 304
SWIDTH 153 0
DWIDTH 6 0
BBX 3 32 1 0
BITMAP
60
E0
00
00
00
C0
40
60
60
60
60
60
60
60
60
60
60
60
60
60
60
60
60
60
60
60
60
60
60
60
60
20
ENDCHAR
STARTCHAR dotlessi
ENCODING 305
SWIDTH 132 0
DWIDTH 5 0
BBX 2 20 1 0
BITMAP
C0
C0
C0
C0
C0
C0
C0
C0
C0
C0
C0
C0
C0
C0
C0
C0
C0
C0
C0
C0
ENDCHAR
STARTCHAR Jcircumflex
ENCODING 308
SWIDTH 371 0
DWIDTH 13 0
BBX 15 38 0 -2
BITMAP
0080
0180
03C0
0360
0630
0418
0C1C
080E
1806
1000
0040
00C0
0040
0040
0060
0060
0060
0060
0060
0060
0060
0070
0030
0030
0030
0030
0030
0030
0030
0030
0030
8030
4030
4030
6030
3030
1860
0FC0
ENDCHAR
STARTCHAR jcircumflex
ENCODING 309
SWIDTH 112 0
DWIDTH 4 0
BBX 14 46 -6 -12
BITMAP
0100
0300
0780
06C0
0C60
0C30
1818
101C
300C
2000
0000
0000
0000
0000
0000
0100
0180
0180
0180
0180
0180
0180
0180
0180
0180
0180
0180
0180
0180
0180
0080
00C0
00C0
00C0
00C0
00C0
00C0
00C0
00C0
00C0
0080
8180
C180
6380
3F00
0E00
ENDCHAR
STARTCHAR Kcommaaccent
ENCODING 310
SWIDTH 524 0
DWIDTH 19 0
BBX 18 36 1 -12
BITMAP
C00000
C00800
C01800
403000
606000
60E000
60C000
618000
638000
630000
660000
640000
2C0000
380000
380000
380000
300000
3FFFC0
3FFFC0
300000
300000
100000
100000
100000
000000
000000
000000
008000
018000
01C000
01C000
018000
018000
018000
018000
010000
ENDCHAR
STARTCHAR kcommaaccent
ENCODING 311
SWIDTH 428 0
DWIDTH 15 0
BBX 14 40 1 -12
BITMAP
4000
6000
6000
6000
6000
6000
6000
601C
6018
6038
6070
6070
60E0
E1E0
C1C0
C380
C700
C700
CE00
FC00
F800
F000
F800
FE00
C7C0
C1F8
C038
C008
8000
0000
0000
0200
0700
0700
0300
0700
0600
0600
0600
0400
ENDCHAR
STARTCHAR Lacute
ENCODING 313
SWIDTH 537 0
DWIDTH 19 0
BBX 18 26 1 0
BITMAP
002000
007000
00E000
41C000
C08000
E00000
E00000
E00000
E00000
E00000
E00000
E00000
E00000
E00000
E00000
600000
600000
600000
6001C0
6007C0
601E00
607800
61E000
6F8000
7E0000
780000
ENDCHAR
STARTCHAR lacute
ENCODING 314
SWIDTH 137 0
DWIDTH 5 0
BBX 5 39 0 1
BITMAP
18
38
70
E0
40
00
00
00
00
40
60
60
60
60
60
60
20
20
20
20
20
20
20
30
30
30
30
30
30
30
30
30
30
30
30
30
30
30
30
ENDCHAR
STARTCHAR Lcommaaccent
ENCODING 315
SWIDTH 537 0
DWIDTH 19 0
BBX 18 35 1 -12
BITMAP
400000
C00000
E00000
E00000
E00000
E00000
E00000
E00000
E00000
E00000
E00000
E00000
600000
600000
600000
6001C0
6007C0
601E00
607800
61E000
6F8000
7E0000
780000
000000
000000
000000
008000
01C000
01C000
00C000
01C000
018000
018000
018000
010000
ENDCHAR
STARTCHAR lcommaaccent
ENCODING 316
SWIDTH 137 0
DWIDTH 5 0
BBX 3 43 1 -12
BITMAP
80
C0
C0
C0
C0
C0
C0
40
40
40
40
40
40
40
60
60
60
60
60
60
60
60
60
60
60
60
60
60
60
60
00
00
00
00
40
C0
E0
E0
C0
C0
C0
C0
80
ENDCHAR
STARTCHAR Lcaron
ENCODING 317
SWIDTH 537 0
DWIDTH 19 0
BBX 18 33 1 0
BITMAP
400000
201800
303000
186000
0D8000
070000
060000
000000
000000
000000
400000
C00000
E00000
E00000
E00000
E00000
E00000
E00000
E00000
E00000
E00000
E00000
600000
600000
600000
6001C0
6007C0
601E00
607800
61E000
6F8000
7E0000
780000
ENDCHAR
STARTCHAR Ldot
ENCODING 319
SWIDTH 537 0
DWIDTH 19 0
BBX 18 23 1 0
BITMAP
400000
C00000
E00000
E00000
E00000
E00000
E00000
E00000
E00000
E00000
E00000
E00000
600000
60C000
61C000
6001C0
6007C0
601E00
607800
61E000
6F8000
7E0000
780000
ENDCHAR
STARTCHAR ldot
ENCODING 320
SWIDTH 267 0
DWIDTH 10 0
BBX 7 30 1 1
BITMAP
80
C0
C0
C0
C0
C0
C0
40
40
40
40
40
40
40
60
60
60
60
60
60
60
66
66
60
60
60
60
60
60
60
ENDCHAR
STARTCHAR Lslash
ENCODING 321
SWIDTH 537 0
DWIDTH 19 0
BBX 20 23 -1 0
BITMAP
100000
300000
380000
380000
380000
380000
380000
380000
380000
380000
380000
387800
3BF800
1FC000
FC0000
F80070
1801F0
180780
181E00
187800
1BE000
1F8000
1E0000
ENDCHAR
STARTCHAR lslash
ENCODING 322
SWIDTH 137 0
DWIDTH 5 0
BBX 13 30 -4 1
BITMAP
0400
0600
0600
0600
0600
0600
0600
0200
0200
0200
0200
0200
0200
0200
0300
0300
0300
0300
0300
0318
03F8
07F0
1F00
FB00
0300
0300
0300
0300
0300
0300
ENDCHAR
STARTCHAR Nacute
ENCODING 323
SWIDTH 541 0
DWIDTH 19 0
BBX 17 30 1 0
BITMAP
008000
018000
038200
070600
060600
000300
000300
C00300
E00300
F00300
F80300
F80300
7C0300
6E0300
670300
630300
618300
61C300
60C300
606300
603300
201B00
301B00
300F00
300700
300380
300380
300380
300000
100000
ENDCHAR
STARTCHAR nacute
ENCODING 324
SWIDTH 483 0
DWIDTH 17 0
BBX 15 27 1 0
BITMAP
00C0
01C0
0380
0300
0200
0000
8030
C0F8
C1F8
C38C
C30C
C70C
C604
E606
6606
6C06
6C06
6C06
6806
7806
7806
7806
7006
7006
7006
7006
6000
ENDCHAR
STARTCHAR Ncommaaccent
ENCODING 325
SWIDTH 541 0
DWIDTH 19 0
BBX 17 40 1 -12
BITMAP
000200
000600
000600
000300
000300
C00300
E00300
F00300
F80300
F80300
7C0300
6E0300
670300
630300
618300
61C300
60C300
606300
603300
201B00
301B00
300F00
300700
300380
300380
300380
300000
100000
000000
000000
000000
008000
01C000
01C000
00C000
00C000
018000
018000
018000
010000
ENDCHAR
STARTCHAR ncommaaccent
ENCODING 326
SWIDTH 483 0
DWIDTH 17 0
BBX 15 33 1 -12
BITMAP
8030
C0F8
C1F8
C38C
C30C
C70C
C604
E606
6606
6C06
6C06
6C06
6806
7806
7806
7806
7006
7006
7006
7006
6000
0000
0000
0000
0100
0380
0380
0180
0380
0300
0300
0300
0200
ENDCHAR
STARTCHAR Ncaron
ENCODING 327
SWIDTH 541 0
DWIDTH 19 0
BBX 17 32 1 0
BITMAP
300000
180C00
081800
0C3000
066200
038600
010600
000300
000300
C00300
E00300
F00300
F80300
F80300
7C0300
6E0300
670300
630300
618300
61C300
60C300
606300
603300
201B00
301B00
300F00
300700
300380
300380
300380
300000
100000
ENDCHAR
STARTCHAR ncaron
ENCODING 328
SWIDTH 483 0
DWIDTH 17 0
BBX 15 29 1 0
BITMAP
2000
301C
1830
0C60
04C0
0780
0300
0000
8030
C0F8
C1F8
C38C
C30C
C70C
C604
E606
6606
6C06
6C06
6C06
6806
7806
7806
7806
7006
7006
7006
7006
6000
ENDCHAR
STARTCHAR napostrophe
ENCODING 329
SWIDTH 483 0
DWIDTH 17 0
BBX 15 32 1 0
BITMAP
0C00
1C00
1C00
0C00
0C00
0C00
0800
0800
1000
0000
0000
8030
C0F8
C1F8
C38C
C30C
C70C
C604
E606
6606
6C06
6C06
6C06
6806
7806
7806
7806
7006
7006
7006
7006
6000
ENDCHAR
STARTCHAR Omacron
ENCODING 332
SWIDTH 382 0
DWIDTH 14 0
BBX 14 29 1 0
BITMAP
003C
3FFC
7F00
0000
0000
0780
0FC0
1C60
1870
3030
3030
6030
6030
6030
E030
C030
C030
C030
C030
8030
8060
8060
8060
C0C0
C0C0
C180
7700
7E00
3C00
ENDCHAR
STARTCHAR omacron
ENCODING 333
SWIDTH 266 0
DWIDTH 10 0
BBX 13 27 -2 0
BITMAP
0078
7FF8
FE00
0000
0000
0000
0000
0700
0F80
0F80
0C40
0840
1860
1860
1860
1860
1860
1860
1860
1860
1860
18C0
18C0
19C0
1B80
1F00
0E00
ENDCHAR
STARTCHAR Obreve
ENCODING 334
SWIDTH 382 0
DWIDTH 14 0
BBX 12 31 1 0
BITMAP
0040
20C0
30C0
1F80
0F00
0400
0000
0780
0FC0
1C60
1870
3030
3030
6030
6030
6030
E030
C030
C030
C030
C030
8030
8060
8060
8060
C0C0
C0C0
C180
7700
7E00
3C00
ENDCHAR
STARTCHAR obreve
ENCODING 335
SWIDTH 266 0
DWIDTH 10 0
BBX 9 27 1 0
BITMAP
0100
C180
C300
7F00
3E00
0800
0000
3800
7C00
7C00
6200
4200
C300
C300
C300
C300
C300
C300
C300
C300
C300
C600
C600
CE00
DC00
F800
7000
ENDCHAR
STARTCHAR Ohungarumlaut
ENCODING 336
SWIDTH 382 0
DWIDTH 14 0
BBX 13 31 1 0
BITMAP
00C0
01D8
03B8
0770
0260
0040
0000
0780
0FC0
1C60
1870
3030
3030
6030
6030
6030
E030
C030
C030
C030
C030
8030
8060
8060
8060
C0C0
C0C0
C180
7700
7E00
3C00
ENDCHAR
STARTCHAR ohungarumlaut
ENCODING 337
SWIDTH 266 0
DWIDTH 10 0
BBX 8 27 1 0
BITMAP
18
3B
77
EE
4C
04
00
38
7C
7C
62
42
C3
C3
C3
C3
C3
C3
C3
C3
C3
C6
C6
CE
DC
F8
70
ENDCHAR
STARTCHAR OE
ENCODING 338
SWIDTH 732 0
DWIDTH 26 0
BBX 25 26 1 0
BITMAP
00000600
00307C00
07F1F000
0FF7C000
1C7F0000
187C0000
30300000
30300000
60300000
60300400
60301800
E0303800
C030E000
C03B8000
C03E0000
C03C0000
80380000
80780100
80780380
80780E00
C0D81C00
C0D87000
C198E000
771F8000
7E1F0000
3C1C0000
ENDCHAR
STARTCHAR oe
ENCODING 339
SWIDTH 628 0
DWIDTH 23 0
BBX 22 20 1 0
BITMAP
380000
7C1F80
7C3FC0
6238E0
4270E0
C361C0
C3E700
C3DE00
C3F800
C3E000
C3C00C
C3C01C
C3C038
C3C030
C6C070
C680E0
CEC1C0
DCE700
F87E00
701000
ENDCHAR
STARTCHAR Racute
ENCODING 340
SWIDTH 503 0
DWIDTH 18 0
BBX 17 34 1 0
BITMAP
003000
007000
00E000
01C000
008000
800000
E07000
E3FE00
EF8F00
FC0300
F00300
E00600
E00C00
E01800
C07000
C1C000
C78000
CE0000
F80000
F00000
E00000
F80000
FE0000
CF8000
C3E000
C0F800
C03E00
C00F80
C00380
C00000
C00000
C00000
C00000
C00000
ENDCHAR
STARTCHAR racute
ENCODING 341
SWIDTH 396 0
DWIDTH 14 0
BBX 12 26 1 0
BITMAP
0180
0380
0700
0600
0400
0000
0000
0000
C1F0
C7F0
C700
CE00
CC00
4C00
4C00
6C00
7800
7800
7800
3800
3800
3800
3800
3800
3800
1800
ENDCHAR
STARTCHAR Rcommaaccent
ENCODING 342
SWIDTH 503 0
DWIDTH 18 0
BBX 17 41 1 -12
BITMAP
800000
E07000
E3FE00
EF8F00
FC0300
F00300
E00600
E00C00
E01800
C07000
C1C000
C78000
CE0000
F80000
F00000
E00000
F80000
FE0000
CF8000
C3E000
C0F800
C03E00
C00F80
C00380
C00000
C00000
C00000
C00000
C00000
000000
000000
000000
008000
018000
018000
018000
018000
018000
018000
010000
010000
ENDCHAR
STARTCHAR rcommaaccent
ENCODING 343
SWIDTH 396 0
DWIDTH 14 0
BBX 12 30 1 -12
BITMAP
C1F0
C7F0
C700
CE00
CC00
4C00
4C00
6C00
7800
7800
7800
3800
3800
3800
3800
3800
3800
1800
0000
0000
0000
0200
0600
0600
0600
0600
0600
0600
0400
0400
ENDCHAR
STARTCHAR Rcaron
ENCODING 344
SWIDTH 503 0
DWIDTH 18 0
BBX 17 37 1 0
BITMAP
100000
180600
0C1800
063000
026000
03C000
018000
000000
800000
E07000
E3FE00
EF8F00
FC0300
F00300
E00600
E00C00
E01800
C07000
C1C000
C78000
CE0000
F80000
F00000
E00000
F80000
FE0000
CF8000
C3E000
C0F800
C03E00
C00F80
C00380
C00000
C00000
C00000
C00000
C00000
ENDCHAR
STARTCHAR rcaron
ENCODING 345
SWIDTH 396 0
DWIDTH 14 0
BBX 12 29 1 0
BITMAP
C000
4030
2060
30C0
1980
0E00
0400
0000
0000
0000
0000
C1F0
C7F0
C700
CE00
CC00
4C00
4C00
6C00
7800
7800
7800
3800
3800
3800
3800
3800
3800
1800
ENDCHAR
STARTCHAR Sacute
ENCODING 346
SWIDTH 541 0
DWIDTH 19 0
BBX 19 31 0 1
BITMAP
001000
003000
007000
00E000
00C000
000000
003E00
00FE00
038800
060000
0C0000
180000
300000
300000
600000
600000
C00000
C00000
600000
600000
380000
0FF000
00FF80
0001C0
000060
0000C0
000380
000F00
007C00
03F000
0F8000
ENDCHAR
STARTCHAR sacute
ENCODING 347
SWIDTH 366 0
DWIDTH 13 0
BBX 12 27 1 -1
BITMAP
0100
0300
0700
0E00
0C00
0000
0000
0000
07C0
1FC0
3800
7000
6000
C000
C000
C000
C1E0
FFE0
FC70
3030
0060
00E0
01C0
0380
0F00
1E00
1800
ENDCHAR
STARTCHAR Scircumflex
ENCODING 348
SWIDTH 541 0
DWIDTH 19 0
BBX 19 36 0 1
BITMAP
004000
006000
00F000
019800
018C00
030C00
030600
060380
040180
0C0000
000000
003E00
00FE00
038800
060000
0C0000
180000
300000
300000
600000
600000
C00000
C00000
600000
600000
380000
0FF000
00FF80
0001C0
000060
0000C0
000380
000F00
007C00
03F000
0F8000
ENDCHAR
STARTCHAR scircumflex
ENCODING 349
SWIDTH 366 0
DWIDTH 13 0
BBX 12 30 1 -1
BITMAP
0400
0E00
0E00
1B00
3180
30C0
6060
6030
C030
8000
0000
07C0
1FC0
3800
7000
6000
C000
C000
C000
C1E0
FFE0
FC70
3030
0060
00E0
01C0
0380
0F00
1E00
1800
ENDCHAR
STARTCHAR Scedilla
ENCODING 350
SWIDTH 541 0
DWIDTH 19 0
BBX 20 36 0 -10
BITMAP
003E00
00FE00
038800
060000
0C0000
180000
300000
300000
600000
600000
C00000
C00000
600000
600000
380000
0FF000
00FF80
0001C0
000060
0000C0
000380
000F00
007C00
03F800
0F8800
000800
000800
000C00
000F00
000FC0
0001E0
000070
000070
0001F0
000FE0
000F00
ENDCHAR
STARTCHAR scedilla
ENCODING 351
SWIDTH 366 0
DWIDTH 13 0
BBX 12 29 1 -11
BITMAP
07C0
1FC0
3800
7000
6000
C000
C000
C000
C1E0
FFE0
FC70
3030
0060
00E0
01C0
0380
0F00
1E00
1C00
0C00
0C00
0F00
07C0
03E0
0070
0030
0070
07F0
0FC0
ENDCHAR
STARTCHAR Scaron
ENCODING 352
SWIDTH 541 0
DWIDTH 19 0
BBX 19 32 0 1
BITMAP
080000
0C0300
060C00
031800
013000
01E000
00C000
003E00
00FE00
038800
060000
0C0000
180000
300000
300000
600000
600000
C00000
C00000
600000
600000
380000
0FF000
00FF80
0001C0
000060
0000C0
000380
000F00
007C00
03F000
0F8000
ENDCHAR
STARTCHAR scaron
ENCODING 353
SWIDTH 366 0
DWIDTH 13 0
BBX 12 28 1 -1
BITMAP
8000
C070
60C0
3180
3300
1E00
0C00
0000
0000
07C0
1FC0
3800
7000
6000
C000
C000
C000
C1E0
FFE0
FC70
3030
0060
00E0
01C0
0380
0F00
1E00
1800
ENDCHAR
STARTCHAR Tcommaaccent
ENCODING 354
SWIDTH 595 0
DWIDTH 21 0
BBX 25 38 0 -12
BITMAP
00180000
0018FF80
00FFFC00
7FFC0000
FE180000
00180000
00080000
000C0000
000C0000
000C0000
000C0000
000C0000
000C0000
000C0000
000C0000
000C0000
00060000
00060000
00060000
00060000
00060000
00060000
00060000
00060000
00020000
00030000
00000000
00000000
00000000
00010000
00038000
00038000
00038000
00038000
00030000
00030000
00030000
00020000
ENDCHAR
STARTCHAR tcommaaccent
ENCODING 355
SWIDTH 268 0
DWIDTH 10 0
BBX 11 39 -1 -12
BITMAP
1800
1800
1800
1800
1800
1800
1800
18E0
1FE0
3F80
FC00
F800
D800
1800
1800
1800
1800
1800
1800
1800
1800
1800
1800
0800
0800
0C00
0C00
0800
0000
0000
0200
0E00
0E00
0600
0600
0600
0400
0400
0800
ENDCHAR
STARTCHAR Tcaron
ENCODING 356
SWIDTH 595 0
DWIDTH 21 0
BBX 25 36 0 0
BITMAP
00800000
00C03000
00606000
00318000
001B0000
001E0000
000C0000
00000000
00000000
00000000
00180000
0018FF80
00FFFC00
7FFC0000
FE180000
00180000
00080000
000C0000
000C0000
000C0000
000C0000
000C0000
000C0000
000C0000
000C0000
000C0000
00060000
00060000
00060000
00060000
00060000
00060000
00060000
00060000
00020000
00030000
ENDCHAR
STARTCHAR Tbar
ENCODING 358
SWIDTH 595 0
DWIDTH 21 0
BBX 25 26 0 0
BITMAP
00180000
0018FF80
00FFFC00
7FFC0000
FE180000
00180000
00080000
000C0000
000FE000
03FFE000
03EC0000
000C0000
000C0000
000C0000
000C0000
000C0000
00060000
00060000
00060000
00060000
00060000
00060000
00060000
00060000
00020000
00030000
ENDCHAR
STARTCHAR Utilde
ENCODING 360
SWIDTH 450 0
DWIDTH 16 0
BBX 15 35 1 -4
BITMAP
0C00
3F0C
731C
619C
61F8
00E0
0000
0000
0000
000C
C00C
C00C
C01C
C01C
C01C
C01C
C01C
C01C
C03C
C03C
C03C
C03C
C03C
C06C
406C
404C
60CC
618C
738C
3F04
1804
0004
0004
0006
0004
ENDCHAR
STARTCHAR utilde
ENCODING 361
SWIDTH 387 0
DWIDTH 14 0
BBX 14 27 0 -1
BITMAP
1C00
7E1C
E718
C338
C3F0
01E0
0000
0000
0000
6030
6030
6030
6030
6030
6030
6070
6070
6070
6070
20F0
30F0
31F0
31F0
33B0
1F30
1E18
0010
ENDCHAR
STARTCHAR Umacron
ENCODING 362
SWIDTH 450 0
DWIDTH 16 0
BBX 15 31 1 -4
BITMAP
0078
7FFC
7F00
0000
0000
000C
C00C
C00C
C01C
C01C
C01C
C01C
C01C
C01C
C03C
C03C
C03C
C03C
C03C
C06C
406C
404C
60CC
618C
738C
3F04
1804
0004
0004
0006
0004
ENDCHAR
STARTCHAR umacron
ENCODING 363
SWIDTH 387 0
DWIDTH 14 0
BBX 13 28 0 -1
BITMAP
0078
7FF8
FF00
0000
0000
0000
0000
0000
0000
0000
6030
6030
6030
6030
6030
6030
6070
6070
6070
6070
20F0
30F0
31F0
31F0
33B0
1F30
1E18
0010
ENDCHAR
STARTCHAR Ubreve
ENCODING 364
SWIDTH 450 0
DWIDTH 16 0
BBX 15 31 1 -4
BITMAP
0010
1830
1C70
0FE0
07C0
010C
C00C
C00C
C01C
C01C
C01C
C01C
C01C
C01C
C03C
C03C
C03C
C03C
C03C
C06C
406C
404C
60CC
618C
738C
3F04
1804
0004
0004
0006
0004
ENDCHAR
STARTCHAR ubreve
ENCODING 365
SWIDTH 387 0
DWIDTH 14 0
BBX 12 28 1 -1
BITMAP
0020
3060
38E0
1FC0
0F80
0200
0000
0000
0000
0000
C060
C060
C060
C060
C060
C060
C0E0
C0E0
C0E0
C0E0
41E0
61E0
63E0
63E0
6760
3E60
3C30
0020
ENDCHAR
STARTCHAR Uring
ENCODING 366
SWIDTH 450 0
DWIDTH 16 0
BBX 15 33 1 -4
BITMAP
0FC0
1CE0
1860
1860
1CE0
0F80
0000
000C
C00C
C00C
C01C
C01C
C01C
C01C
C01C
C01C
C03C
C03C
C03C
C03C
C03C
C06C
406C
404C
60CC
618C
738C
3F04
1804
0004
0004
0006
0004
ENDCHAR
STARTCHAR uring
ENCODING 367
SWIDTH 387 0
DWIDTH 14 0
BBX 12 25 1 -1
BITMAP
1F80
39C0
30C0
30C0
39C0
1F00
0000
C060
C060
C060
C060
C060
C060
C0E0
C0E0
C0E0
C0E0
41E0
61E0
63E0
63E0
6760
3E60
3C30
0020
ENDCHAR
STARTCHAR Uhungarumlaut
ENCODING 368
SWIDTH 450 0
DWIDTH 16 0
BBX 15 34 1 -4
BITMAP
0300
0760
0EE0
1DC0
0980
0100
0000
0000
000C
C00C
C00C
C01C
C01C
C01C
C01C
C01C
C01C
C03C
C03C
C03C
C03C
C03C
C06C
406C
404C
60CC
618C
738C
3F04
1804
0004
0004
0006
0004
ENDCHAR
STARTCHAR uhungarumlaut
ENCODING 369
SWIDTH 387 0
DWIDTH 14 0
BBX 12 25 1 -1
BITMAP
0C00
1D80
3B80
3700
2600
0200
0000
C060
C060
C060
C060
C060
C060
C0E0
C0E0
C0E0
C0E0
41E0
61E0
63E0
63E0
6760
3E60
3C30
0020
ENDCHAR
STARTCHAR Uogonek
ENCODING 370
SWIDTH 450 0
DWIDTH 16 0
BBX 18 32 1 -10
BITMAP
000C00
C00C00
C00C00
C01C00
C01C00
C01C00
C01C00
C01C00
C01C00
C03C00
C03C00
C03C00
C03C00
C03C00
C06C00
406C00
404C00
60CC00
618C00
738C00
3F0400
180400
000C00
001C00
003E00
003400
007000
006000
006000
0033C0
003F80
001F00
ENDCHAR
STARTCHAR uogonek
ENCODING 371
SWIDTH 387 0
DWIDTH 14 0
BBX 15 25 1 -8
BITMAP
C060
C060
C060
C060
C060
C060
C0E0
C0E0
C0E0
C0E0
41E0
61E0
63E0
63E0
6760
3E60
3C70
00F0
0180
0180
0300
0300
0106
01FE
00FC
ENDCHAR
STARTCHAR Wcircumflex
ENCODING 372
SWIDTH 878 0
DWIDTH 32 0
BBX 29 38 1 0
BITMAP
00020000
00060000
000F0000
000D8000
0018C000
00106000
00307000
00203800
00601800
00400000
00000000
00000008
00000018
00000018
00000018
00010018
C0038030
C0038030
E003C030
6003C030
6006C060
3006C060
3004E060
300C6060
380C60C0
180870C0
181830C0
1C1830C0
1C181980
0C301980
0C300D80
0E300D80
0E600700
06600700
07600300
07E00300
03C00000
03C00000
ENDCHAR
STARTCHAR wcircumflex
ENCODING 373
SWIDTH 566 0
DWIDTH 20 0
BBX 18 34 1 0
BITMAP
008000
01C000
01E000
036000
023000
061800
0C0C00
0C0600
180600
180000
000000
000000
000000
000000
000000
008000
C18080
C1C0C0
C1E0C0
61E0C0
61B0C0
33B0C0
3318C0
3318C0
1B0CC0
1B06C0
1F06C0
0F03C0
0F03C0
0701C0
0700C0
0700C0
030000
030000
ENDCHAR
STARTCHAR Ycircumflex
ENCODING 374
SWIDTH 483 0
DWIDTH 17 0
BBX 17 39 0 0
BITMAP
008000
018000
03C000
036000
063000
041800
0C1C00
080E00
180600
100000
000000
000100
000180
000100
000300
000300
C00200
600600
600600
300600
380C00
1C0C00
0E0C00
061800
031800
039800
01F000
00F000
007000
006000
006000
006000
00C000
00C000
00C000
018000
018000
018000
010000
ENDCHAR
STARTCHAR ycircumflex
ENCODING 375
SWIDTH 363 0
DWIDTH 13 0
BBX 13 47 0 -13
BITMAP
0400
0600
0F00
1980
18C0
30C0
3060
6038
6018
C000
0000
0000
0000
0000
0000
0010
0010
0010
6010
7010
3030
3830
1830
1C30
0C30
0630
0730
0330
01B0
01F0
00F0
00F0
0070
0030
0030
0030
0030
0030
0020
0060
0060
0060
0060
0060
0060
0060
0060
ENDCHAR
STARTCHAR Ydieresis
ENCODING 376
SWIDTH 483 0
DWIDTH 17 0
BBX 17 28 0 0
BITMAP
000100
033180
073100
022300
000300
C00200
600600
600600
300600
380C00
1C0C00
0E0C00
061800
031800
039800
01F000
00F000
007000
006000
006000
006000
00C000
00C000
00C000
018000
018000
018000
010000
ENDCHAR
STARTCHAR Zacute
ENCODING 377
SWIDTH 670 0
DWIDTH 24 0
BBX 22 33 1 0
BITMAP
001800
003800
007000
00E000
004000
000000
000000
000000
7FF000
FFFFE0
0001E0
0001C0
000380
000700
000700
000E00
001C00
003800
003000
007000
00E000
01C000
038000
030000
070000
0E0000
1C0000
180000
300000
700000
FFFFFC
FFFFFC
FFFF00
ENDCHAR
STARTCHAR zacute
ENCODING 378
SWIDTH 618 0
DWIDTH 22 0
BBX 22 26 1 0
BITMAP
001800
003800
007000
006000
004000
000000
000000
000000
003800
00F800
07D800
7E3800
F83000
007000
006000
00E000
00C000
01C000
018000
030000
030000
030038
0607FC
067FF0
07FE00
078000
ENDCHAR
STARTCHAR Zdotaccent
ENCODING 379
SWIDTH 670 0
DWIDTH 24 0
BBX 22 29 1 0
BITMAP
003000
003000
000000
000000
7FF000
FFFFE0
0001E0
0001C0
000380
000700
000700
000E00
001C00
003800
003000
007000
00E000
01C000
038000
030000
070000
0E0000
1C0000
180000
300000
700000
FFFFFC
FFFFFC
FFFF00
ENDCHAR
STARTCHAR zdotaccent
ENCODING 380
SWIDTH 618 0
DWIDTH 22 0
BBX 22 22 1 0
BITMAP
007000
006000
000000
000000
003800
00F800
07D800
7E3800
F83000
007000
006000
00E000
00C000
01C000
018000
030000
030000
030038
0607FC
067FF0
07FE00
078000
ENDCHAR
STARTCHAR Zcaron
ENCODING 381
SWIDTH 670 0
DWIDTH 24 0
BBX 22 34 1 0
BITMAP
020000
0300C0
018380
00C600
004C00
007800
003000
000000
000000
7FF000
FFFFE0
0001E0
0001C0
000380
000700
000700
000E00
001C00
003800
003000
007000
00E000
01C000
038000
030000
070000
0E0000
1C0000
180000
300000
700000
FFFFFC
FFFFFC
FFFF00
ENDCHAR
STARTCHAR zcaron
ENCODING 382
SWIDTH 618 0
DWIDTH 22 0
BBX 22 26 1 0
BITMAP
180000
080600
040C00
061800
033000
01C000
018000
000000
003800
00F800
07D800
7E3800
F83000
007000
006000
00E000
00C000
01C000
018000
030000
030000
030038
0607FC
067FF0
07FE00
078000
ENDCHAR
STARTCHAR florin
ENCODING 402
SWIDTH 345 0
DWIDTH 12 0
BBX 13 41 -1 -9
BITMAP
0380
03C0
07E0
0760
0620
0600
0600
0600
0E00
0E00
0E00
0E00
0C00
0C08
0C38
0DF8
0FC0
1E00
3C00
3400
0400
0600
0600
0600
0600
0600
0600
0600
0600
0600
0600
0600
0600
0600
0600
0600
0600
0600
0600
FE00
7C00
ENDCHAR
STARTCHAR AEacute
ENCODING 508
SWIDTH 708 0
DWIDTH 26 0
BBX 24 33 1 1
BITMAP
003000
007000
00E000
01C000
008000
000000
000000
100000
38603C
3861F0
3C67C0
3C7F00
367C00
363000
322000
332000
333000
713018
61B030
61B0C0
61B380
60FE00
60F800
61F000
63F000
7F7003
70700E
E0701C
C03070
C030E0
C03380
C03F00
C03C00
ENDCHAR
STARTCHAR aeacute
ENCODING 509
SWIDTH 705 0
DWIDTH 25 0
BBX 25 26 0 0
BITMAP
00020000
00070000
000E0000
001C0000
00080000
00000000
0001F000
01E3F800
03E71C00
07661C00
0E6C3800
1C6C7000
187DC000
38FF8000
30FE0000
31F80100
61F80380
63B80300
63380700
C7380E00
C6381C00
CC383800
DC187000
F81FC000
70170000
20100000
ENDCHAR
STARTCHAR Oslashacute
ENCODING 510
SWIDTH 382 0
DWIDTH 14 0
BBX 12 35 1 -3
BITMAP
0080
01C0
0380
0700
0200
0000
0000
0060
07C0
0FC0
1CE0
18F0
31B0
31B0
6130
6330
6330
E330
C230
C630
C630
C430
8C30
8C60
8860
9860
D8C0
D0C0
F180
7700
7E00
3C00
6000
6000
4000
ENDCHAR
STARTCHAR oslashacute
ENCODING 511
SWIDTH 266 0
DWIDTH 10 0
BBX 10 30 0 -3
BITMAP
0300
0700
0E00
1C00
0800
0000
00C0
1980
3F80
3F00
3300
2300
6380
6780
6780
6580
6D80
6D80
6980
7980
7180
7300
7300
6700
6E00
7C00
7800
C000
C000
8000
ENDCHAR
STARTCHAR Scommaaccent
ENCODING 536
SWIDTH 541 0
DWIDTH 19 0
BBX 19 38 0 -12
BITMAP
003E00
00FE00
038800
060000
0C0000
180000
300000
300000
600000
600000
C00000
C00000
600000
600000
380000
0FF000
00FF80
0001C0
000060
0000C0
000380
000F00
007C00
03F000
0F8000
000000
000000
000000
000000
004000
00E000
00E000
006000
006000
00C000
00C000
00C000
008000
ENDCHAR
STARTCHAR scommaaccent
ENCODING 537
SWIDTH 366 0
DWIDTH 13 0
BBX 12 30 1 -12
BITMAP
07C0
1FC0
3800
7000
6000
C000
C000
C000
C1E0
FFE0
FC70
3030
0060
00E0
01C0
0380
0F00
1E00
1800
0000
0000
0400
0E00
0E00
0E00
0E00
0C00
0C00
0C00
0800
ENDCHAR
STARTCHAR circumflex
ENCODING 710
SWIDTH 390 0
DWIDTH 14 0
BBX 13 10 1 24
BITMAP
0400
0E00
0F00
1B00
1180
30C0
2060
6030
C038
C000
ENDCHAR
STARTCHAR caron
ENCODING 711
SWIDTH 390 0
DWIDTH 14 0
BBX 12 7 2 22
BITMAP
8000
4030
6060
3080
1B00
1E00
0C00
ENDCHAR
STARTCHAR breve
ENCODING 728
SWIDTH 390 0
DWIDTH 14 0
BBX 9 6 2 21
BITMAP
0080
C180
6380
3F00
1E00
0800
ENDCHAR
STARTCHAR dotaccent
ENCODING 729
SWIDTH 128 0
DWIDTH 5 0
BBX 2 2 1 20
BITMAP
C0
C0
ENDCHAR
STARTCHAR ring
ENCODING 730
SWIDTH 266 0
DWIDTH 10 0
BBX 8 6 1 18
BITMAP
7E
E7
C3
C3
E7
7C
ENDCHAR
STARTCHAR ogonek
ENCODING 731
SWIDTH 366 0
DWIDTH 13 0
BBX 9 10 3 -9
BITMAP
1800
3800
7000
6000
6000
C000
C000
6780
7F00
1C00
ENDCHAR
STARTCHAR tilde
ENCODING 732
SWIDTH 458 0
DWIDTH 17 0
BBX 14 6 1 20
BITMAP
1C00
7E0C
631C
E338
C1F0
00E0
ENDCHAR
STARTCHAR hungarumlaut
ENCODING 733
SWIDTH 239 0
DWIDTH 9 0
BBX 8 6 0 16
BITMAP
18
3B
77
EE
4C
08
ENDCHAR
STARTCHAR Wgrave
ENCODING 7808
SWIDTH 878 0
DWIDTH 32 0
BBX 29 35 1 0
BITMAP
00020000
00060000
00070000
00038000
00018000
00008000
00000000
00000000
00000008
00000018
00000018
00000018
00010018
C0038030
C0038030
E003C030
6003C030
6006C060
3006C060
3004E060
300C6060
380C60C0
180870C0
181830C0
1C1830C0
1C181980
0C301980
0C300D80
0E300D80
0E600700
06600700
07600300
07E00300
03C00000
03C00000
ENDCHAR
STARTCHAR wgrave
ENCODING 7809
SWIDTH 566 0
DWIDTH 20 0
BBX 18 27 1 0
BITMAP
010000
018000
018000
00C000
00C000
004000
000000
000000
008000
C18080
C1C0C0
C1E0C0
61E0C0
61B0C0
33B0C0
3318C0
3318C0
1B0CC0
1B06C0
1F06C0
0F03C0
0F03C0
0701C0
0700C0
0700C0
030000
030000
ENDCHAR
STARTCHAR Wacute
ENCODING 7810
SWIDTH 878 0
DWIDTH 32 0
BBX 29 33 1 0
BITMAP
00030000
00070000
000E0000
000C0000
00080000
00000000
00000008
00000018
00000018
00000018
00010018
C0038030
C0038030
E003C030
6003C030
6006C060
3006C060
3004E060
300C6060
380C60C0
180870C0
181830C0
1C1830C0
1C181980
0C301980
0C300D80
0E300D80
0E600700
06600700
07600300
07E00300
03C00000
03C00000
ENDCHAR
STARTCHAR wacute
ENCODING 7811
SWIDTH 566 0
DWIDTH 20 0
BBX 18 26 1 0
BITMAP
003000
007000
00E000
00C000
008000
000000
000000
008000
C18080
C1C0C0
C1E0C0
61E0C0
61B0C0
33B0C0
3318C0
3318C0
1B0CC0
1B06C0
1F06C0
0F03C0
0F03C0
0701C0
0700C0
0700C0
030000
030000
ENDCHAR
STARTCHAR Wdieresis
ENCODING 7812
SWIDTH 878 0
DWIDTH 32 0
BBX 29 30 1 0
BITMAP
000C6000
001CE000
00084000
00000008
00000018
00000018
00000018
00010018
C0038030
C0038030
E003C030
6003C030
6006C060
3006C060
3004E060
300C6060
380C60C0
180870C0
181830C0
1C1830C0
1C181980
0C301980
0C300D80
0E300D80
0E600700
06600700
07600300
07E00300
03C00000
03C00000
ENDCHAR
STARTCHAR wdieresis
ENCODING 7813
SWIDTH 566 0
DWIDTH 20 0
BBX 18 27 1 0
BITMAP
031800
033800
021000
000000
000000
000000
000000
000000
008000
C18080
C1C0C0
C1E0C0
61E0C0
61B0C0
33B0C0
3318C0
3318C0
1B0CC0
1B06C0
1F06C0
0F03C0
0F03C0
0701C0
0700C0
0700C0
030000
030000
ENDCHAR
STARTCHAR Ygrave
ENCODING 7922
SWIDTH 483 0
DWIDTH 17 0
BBX 17 36 0 0
BITMAP
010000
018000
018000
00C000
00C000
004000
000000
000000
000100
000180
000100
000300
000300
C00200
600600
600600
300600
380C00
1C0C00
0E0C00
061800
031800
039800
01F000
00F000
007000
006000
006000
006000
00C000
00C000
00C000
018000
018000
018000
010000
ENDCHAR
STARTCHAR ygrave
ENCODING 7923
SWIDTH 363 0
DWIDTH 13 0
BBX 11 40 1 -13
BITMAP
1000
1800
1C00
0C00
0600
0400
0000
0000
0020
0020
0020
C020
E020
6060
7060
3060
3860
1860
0C60
0E60
0660
0360
03E0
01E0
01E0
00E0
0060
0060
0060
0060
0060
0040
00C0
00C0
00C0
00C0
00C0
00C0
00C0
00C0
ENDCHAR
STARTCHAR endash
ENCODING 8211
SWIDTH 399 0
DWIDTH 14 0
BBX 14 5 0 7
BITMAP
0018
00FC
03F0
1F80
FC00
ENDCHAR
STARTCHAR emdash
ENCODING 8212
SWIDTH 549 0
DWIDTH 20 0
BBX 18 4 0 7
BITMAP
0007C0
007FC0
0FFC00
FF0000
ENDCHAR
STARTCHAR quoteleft
ENCODING 8216
SWIDTH 155 0
DWIDTH 6 0
BBX 3 11 1 12
BITMAP
40
C0
C0
E0
E0
60
60
40
40
40
20
ENDCHAR
STARTCHAR quoteright
ENCODING 8217
SWIDTH 155 0
DWIDTH 6 0
BBX 3 11 1 12
BITMAP
40
C0
C0
E0
E0
60
60
40
40
40
20
ENDCHAR
STARTCHAR quotesinglbase
ENCODING 8218
SWIDTH 155 0
DWIDTH 6 0
BBX 2 10 2 0
BITMAP
80
C0
C0
C0
C0
C0
C0
C0
C0
40
ENDCHAR
STARTCHAR quotedblleft
ENCODING 8220
SWIDTH 212 0
DWIDTH 8 0
BBX 5 10 1 18
BITMAP
C8
C8
C8
C8
C8
C8
48
48
48
40
ENDCHAR
STARTCHAR quotedblright
ENCODING 8221
SWIDTH 212 0
DWIDTH 8 0
BBX 5 10 1 18
BITMAP
C8
C8
C8
C8
C8
C8
48
48
48
40
ENDCHAR
STARTCHAR quotedblbase
ENCODING 8222
SWIDTH 212 0
DWIDTH 8 0
BBX 5 10 1 0
BITMAP
C8
C8
C8
C8
C8
48
48
48
48
40
ENDCHAR
STARTCHAR dagger
ENCODING 8224
SWIDTH 268 0
DWIDTH 10 0
BBX 11 28 -1 -1
BITMAP
1800
1800
1800
1800
1800
1800
1800
18E0
1FE0
3F80
FC00
F800
D800
1800
1800
1800
1800
1800
1800
1800
1800
1800
1800
0800
0800
0C00
0C00
0800
ENDCHAR
STARTCHAR daggerdbl
ENCODING 8225
SWIDTH 326 0
DWIDTH 12 0
BBX 11 28 1 -1
BITMAP
1800
1800
1800
1800
1800
1800
1800
18E0
1FE0
3F00
FC00
F800
D840
1BE0
1F80
FC00
D800
1800
1800
1800
1800
1800
1800
1800
1800
1800
1800
0800
ENDCHAR
STARTCHAR bullet
ENCODING 8226
SWIDTH 189 0
DWIDTH 7 0
BBX 5 5 1 8
BITMAP
38
78
F8
70
60
ENDCHAR
STARTCHAR ellipsis
ENCODING 8230
SWIDTH 387 0
DWIDTH 14 0
BBX 12 2 1 0
BITMAP
E670
C670
ENDCHAR
STARTCHAR guilsinglleft
ENCODING 8249
SWIDTH 409 0
DWIDTH 15 0
BBX 12 18 2 5
BITMAP
0010
0030
0070
00E0
03C0
0780
0E00
1C00
3000
E000
C000
E000
7800
3C00
0F00
03C0
01F0
0060
ENDCHAR
STARTCHAR guilsinglright
ENCODING 8250
SWIDTH 450 0
DWIDTH 16 0
BBX 12 20 2 4
BITMAP
8000
E000
F800
3C00
0F00
03C0
00E0
0070
0030
0030
0060
00C0
0380
0700
0E00
1C00
7800
F000
C000
8000
ENDCHAR
STARTCHAR fraction
ENCODING 8260
SWIDTH 306 0
DWIDTH 11 0
BBX 10 28 0 -3
BITMAP
00C0
00C0
0080
0180
0180
0100
0300
0300
0200
0600
0600
0600
0400
0C00
0C00
0800
1800
1800
1000
3000
3000
2000
6000
6000
4000
4000
C000
C000
ENDCHAR
STARTCHAR Euro
ENCODING 8364
SWIDTH 589 0
DWIDTH 21 0
BBX 20 26 0 0
BITMAP
001E00
003F00
006100
006080
00C000
008000
018000
018000
030000
030000
030000
07F800
7FC000
7E0000
060000
061E00
06FC00
07E000
7C0000
E40030
040030
060070
0600E0
0703C0
03FF80
01FE00
ENDCHAR
STARTCHAR trademark
ENCODING 8482
SWIDTH 1278 0
DWIDTH 46 0
BBX 45 28 0 0
BITMAP
000001000000
000003C000C0
001801E000C0
0018FFE001C0
00FFFDF001C0
7FFC01B00140
FE1801980340
001801980240
0008008C0240
000C008C0640
000C00860660
000C00860460
000C00830C60
000C00830C60
000C00C18860
000C00C19860
000C00C0D820
000C00C0F020
000600C07020
000600C06020
000600C00030
000600C00030
000600C00030
000600C00030
000600C00030
000600E00038
000200E00038
000300E00030
ENDCHAR
STARTCHAR minus
ENCODING 8722
SWIDTH 358 0
DWIDTH 13 0
BBX 11 3 1 9
BITMAP
01E0
7FE0
F800
ENDCHAR
STARTCHAR commaaccent
ENCODING 63171
SWIDTH 450 0
DWIDTH 16 0
BBX 3 9 6 -12
BITMAP
40
E0
E0
60
E0
C0
C0
C0
80
ENDCHAR
STARTCHAR fi
ENCODING 64257
SWIDTH 409 0
DWIDTH 15 0
BBX 12 32 1 0
BITMAP
0E00
0F00
1F80
1D80
1880
1800
1860
1820
3800
3800
3800
3800
3030
3030
30F0
37F0
3FB0
7830
F030
D030
1030
1830
1830
1830
1830
1830
1830
1830
1830
1830
1830
1830
ENDCHAR
STARTCHAR fl
ENCODING 64258
SWIDTH 416 0
DWIDTH 15 0
BBX 13 32 1 0
BITMAP
0E00
0F00
1FE0
1DA0
18A0
1830
1830
1830
3830
3830
3830
3830
3030
3030
30F0
37D0
3F90
7810
F010
D010
1010
1810
1810
1810
1810
1818
1818
1818
1818
1818
1838
1818
ENDCHAR
STARTCHAR .notdef
ENCODING -1
SWIDTH 450 0
DWIDTH 16 0
BBX 1 1 0 0
BITMAP
00
ENDCHAR
STARTCHAR .null
ENCODING -1
SWIDTH 0 0
DWIDTH 0 0
BBX 1 1 0 0
BITMAP
00
ENDCHAR
STARTCHAR nonmarkingreturn
ENCODING -1
SWIDTH 450 0
DWIDTH 16 0
BBX 1 1 0 0
BITMAP
00
ENDCHAR
ENDFONT
